<svg width="782" height="479" viewBox="0 0 782 479" fill="none" xmlns="http://www.w3.org/2000/svg">
<g clip-path="url(#clip0_187_6064)">
<path fill-rule="evenodd" clip-rule="evenodd" d="M91.0161 388.241C91.0161 388.241 46.6254 399.151 57.5351 441.796C63.236 464.081 104.99 469.234 163.521 469.234C164.895 469.234 166.251 469.224 167.616 469.215C168.869 469.634 170.132 470.043 171.413 470.424C240.204 490.821 334.12 470.461 419.057 444.856C485.555 424.812 636.117 428.412 683.108 428.412C845.629 428.412 758.24 388.241 758.24 388.241H91.0161Z" fill="url(#paint0_linear_187_6064)"/>
<path opacity="0.5" d="M736.718 417.055H333.554V387.376H707.091L736.718 417.055Z" fill="#000640"/>
<path opacity="0.5" fill-rule="evenodd" clip-rule="evenodd" d="M406.672 450.083C406.672 459.021 341.075 466.276 260.158 466.276C179.241 466.276 113.644 459.031 113.644 450.083C113.644 441.145 179.241 433.89 260.158 433.89C341.084 433.899 406.672 441.145 406.672 450.083Z" fill="#000640"/>
<path d="M81.685 390.51H770.812C770.812 390.51 794.674 227.808 688.772 127.358C582.869 26.9075 429.234 104.719 429.234 104.719C429.234 104.719 343.656 -43.1754 217.42 12.7607C13.0703 103.306 81.685 390.51 81.685 390.51Z" fill="url(#paint1_linear_187_6064)"/>
<path opacity="0.8" d="M199.388 48.4488C199.305 48.4488 199.221 48.4395 199.137 48.4395C186.232 48.4395 175.768 58.9216 175.768 71.85C175.768 84.7783 186.232 95.2605 199.137 95.2605C212.043 95.2605 222.507 84.7783 222.507 71.85H199.388V48.4488Z" fill="url(#paint2_linear_187_6064)"/>
<path d="M138.712 176.253H146.372V245.527H138.712V176.253Z" fill="url(#paint3_linear_187_6064)"/>
<path d="M153.493 199.785H161.153V245.536H153.493V199.785Z" fill="url(#paint4_linear_187_6064)"/>
<path d="M168.284 184.866H175.944V245.881H168.284V184.866Z" fill="url(#paint5_linear_187_6064)"/>
<path d="M183.075 178.932H190.735V245.536H183.075V178.932Z" fill="url(#paint6_linear_187_6064)"/>
<path d="M197.856 201.199H205.516V245.536H197.856V201.199Z" fill="url(#paint7_linear_187_6064)"/>
<path d="M212.647 209.895H220.307V245.536H212.647V209.895Z" fill="url(#paint8_linear_187_6064)"/>
<path d="M227.438 183.369H235.097V245.536H227.438V183.369Z" fill="url(#paint9_linear_187_6064)"/>
<path d="M242.219 194.576H249.879V245.536H242.219V194.576Z" fill="url(#paint10_linear_187_6064)"/>
<path d="M257.01 185.619H264.67V245.536H257.01V185.619Z" fill="url(#paint11_linear_187_6064)"/>
<path d="M271.801 204.714H279.461V245.536H271.801V204.714Z" fill="url(#paint12_linear_187_6064)"/>
<path d="M286.591 196.948H294.251V245.536H286.591V196.948Z" fill="url(#paint13_linear_187_6064)"/>
<path d="M289.507 191.963C289.507 191.972 289.349 191.953 289.042 191.907C288.708 191.851 288.262 191.786 287.705 191.693C287.12 191.581 286.387 191.488 285.523 191.404C285.087 191.358 284.623 191.311 284.121 191.256C283.62 191.237 283.091 191.209 282.524 191.181C280.268 191.079 277.492 191.144 274.317 191.628C271.151 192.093 267.576 192.967 263.834 194.483C260.102 195.999 256.183 198.138 252.535 201.17C248.83 204.147 245.599 208.1 242.414 212.406C239.202 216.675 235.924 221.363 231.365 225.139C229.109 227.027 226.546 228.664 223.696 229.78C220.845 230.878 217.67 231.352 214.55 230.906C211.412 230.524 208.506 229.232 205.925 227.632C203.362 225.976 201.087 223.995 199.082 221.847C195.034 217.559 192.1 212.685 188.999 208.332C185.935 203.961 182.704 199.971 178.925 197.097C177.058 195.636 175.025 194.585 173.01 193.73C170.977 192.911 168.916 192.409 166.938 192.093C162.955 191.497 159.259 191.842 156.149 192.558C153.029 193.283 150.485 194.427 148.517 195.515C146.586 196.687 145.184 197.757 144.302 198.548C143.884 198.929 143.549 199.236 143.299 199.459C143.067 199.664 142.946 199.766 142.937 199.757C142.927 199.747 143.039 199.636 143.252 199.413C143.494 199.171 143.809 198.855 144.218 198.455C145.081 197.627 146.465 196.52 148.396 195.302C150.365 194.167 152.918 192.976 156.075 192.204C159.213 191.451 162.955 191.06 167.012 191.637C169.027 191.944 171.125 192.437 173.205 193.265C175.257 194.12 177.355 195.199 179.259 196.669C183.121 199.571 186.399 203.598 189.491 207.979C192.61 212.35 195.554 217.187 199.546 221.4C201.524 223.521 203.771 225.455 206.268 227.074C208.794 228.636 211.607 229.892 214.634 230.255C217.642 230.682 220.697 230.227 223.464 229.166C226.231 228.087 228.738 226.488 230.957 224.637C235.432 220.935 238.7 216.294 241.931 212.025C243.547 209.885 245.144 207.802 246.834 205.886C247.688 204.937 248.523 203.998 249.443 203.161L250.789 201.896C251.244 201.496 251.717 201.124 252.182 200.733C255.896 197.683 259.87 195.534 263.648 194.037C267.437 192.53 271.048 191.683 274.252 191.246C277.455 190.8 280.25 190.763 282.515 190.902C283.081 190.939 283.62 190.967 284.121 191.005C284.623 191.07 285.087 191.125 285.523 191.181C286.396 191.284 287.12 191.395 287.705 191.525C288.262 191.646 288.708 191.73 289.033 191.804C289.358 191.916 289.507 191.953 289.507 191.963ZM130.272 250.363C130.096 250.363 129.947 230.608 129.947 206.249C129.947 181.88 130.087 162.125 130.272 162.125C130.449 162.125 130.597 181.871 130.597 206.249C130.597 230.608 130.458 250.363 130.272 250.363ZM297.371 250.363C297.371 250.54 261.039 250.689 216.231 250.689C171.404 250.689 135.082 250.549 135.082 250.363C135.082 250.187 171.404 250.038 216.231 250.038C261.039 250.038 297.371 250.187 297.371 250.363ZM149.631 255.814C149.631 255.99 147.087 256.139 143.949 256.139C140.81 256.139 138.266 255.99 138.266 255.814C138.266 255.637 140.81 255.488 143.949 255.488C147.087 255.488 149.631 255.637 149.631 255.814ZM168.488 256.093C168.488 256.269 165.443 256.418 161.692 256.418C157.941 256.418 154.896 256.269 154.896 256.093C154.896 255.916 157.941 255.767 161.692 255.767C165.443 255.767 168.488 255.916 168.488 256.093ZM184.57 256.093C184.57 256.269 181.524 256.418 177.773 256.418C174.022 256.418 170.977 256.269 170.977 256.093C170.977 255.916 174.022 255.767 177.773 255.767C181.534 255.767 184.57 255.916 184.57 256.093ZM200.651 256.093C200.651 256.269 197.606 256.418 193.855 256.418C190.104 256.418 187.058 256.269 187.058 256.093C187.058 255.916 190.094 255.767 193.855 255.767C197.615 255.767 200.651 255.916 200.651 256.093ZM216.742 256.093C216.742 256.269 213.696 256.418 209.945 256.418C206.194 256.418 203.149 256.269 203.149 256.093C203.149 255.916 206.194 255.767 209.945 255.767C213.696 255.767 216.742 255.916 216.742 256.093ZM232.823 256.093C232.823 256.269 229.777 256.418 226.026 256.418C222.275 256.418 219.23 256.269 219.23 256.093C219.23 255.916 222.275 255.767 226.026 255.767C229.777 255.767 232.823 255.916 232.823 256.093ZM248.904 256.093C248.904 256.269 245.859 256.418 242.108 256.418C238.357 256.418 235.311 256.269 235.311 256.093C235.311 255.916 238.357 255.767 242.108 255.767C245.859 255.767 248.904 255.916 248.904 256.093ZM264.985 256.093C264.985 256.269 261.94 256.418 258.189 256.418C254.438 256.418 251.392 256.269 251.392 256.093C251.392 255.916 254.438 255.767 258.189 255.767C261.94 255.767 264.985 255.916 264.985 256.093ZM281.067 256.093C281.067 256.269 278.021 256.418 274.27 256.418C270.519 256.418 267.474 256.269 267.474 256.093C267.474 255.916 270.519 255.767 274.27 255.767C278.031 255.767 281.067 255.916 281.067 256.093ZM297.148 256.093C297.148 256.269 294.103 256.418 290.352 256.418C286.6 256.418 283.555 256.269 283.555 256.093C283.555 255.916 286.6 255.767 290.352 255.767C294.112 255.767 297.148 255.916 297.148 256.093Z" fill="white"/>
<path d="M191.06 209.16C191.041 209.076 191.719 209.179 191.979 210.053C192.09 210.462 192.09 211.039 191.673 211.541C191.264 212.053 190.447 212.164 189.834 211.867C189.212 211.597 188.748 210.918 188.859 210.267C188.952 209.634 189.389 209.244 189.769 209.058C190.596 208.667 191.125 209.104 191.051 209.151C191.023 209.244 190.549 209.067 190.001 209.448C189.741 209.634 189.481 209.96 189.454 210.332C189.416 210.695 189.676 211.085 190.104 211.281C190.531 211.467 190.995 211.411 191.246 211.141C191.506 210.881 191.58 210.462 191.543 210.146C191.459 209.486 191.004 209.253 191.06 209.16ZM265.088 192.437C265.088 192.4 265.236 192.344 265.524 192.39C265.803 192.437 266.202 192.623 266.527 193.032C266.852 193.423 267.093 194.13 266.796 194.837C266.508 195.516 265.784 196.046 264.92 196.046C264.02 196.046 263.361 195.32 263.175 194.66C262.952 193.972 263.166 193.255 263.537 192.883C264.298 192.121 265.013 192.242 264.995 192.297C265.032 192.4 264.391 192.493 263.89 193.172C263.648 193.497 263.556 193.981 263.732 194.474C263.908 194.957 264.363 195.404 264.93 195.404C265.496 195.413 266.044 195.032 266.257 194.595C266.48 194.148 266.369 193.646 266.155 193.302C265.719 192.576 265.069 192.539 265.088 192.437Z" fill="white"/>
<path d="M266.295 160.097C266.118 160.097 265.97 159.679 265.97 159.167C265.97 158.656 266.118 158.237 266.295 158.237C266.471 158.237 266.62 158.656 266.62 159.167C266.61 159.679 266.471 160.097 266.295 160.097ZM266.295 168.152C266.118 168.152 265.97 167.25 265.97 166.134C265.97 165.018 266.118 164.116 266.295 164.116C266.471 164.116 266.62 165.018 266.62 166.134C266.61 167.25 266.471 168.152 266.295 168.152ZM266.295 176.216C266.118 176.216 265.97 175.314 265.97 174.198C265.97 173.082 266.118 172.179 266.295 172.179C266.471 172.179 266.62 173.082 266.62 174.198C266.61 175.314 266.471 176.216 266.295 176.216ZM266.295 184.28C266.118 184.28 265.97 183.378 265.97 182.262C265.97 181.146 266.118 180.243 266.295 180.243C266.471 180.243 266.62 181.146 266.62 182.262C266.61 183.378 266.471 184.28 266.295 184.28ZM266.295 190.168C266.118 190.168 265.97 189.749 265.97 189.237C265.97 188.726 266.118 188.307 266.295 188.307C266.471 188.307 266.62 188.726 266.62 189.237C266.61 189.749 266.471 190.168 266.295 190.168Z" fill="white"/>
<path d="M319.776 380.456C319.776 380.456 310.305 393.319 278.152 392.547C254.717 391.989 231.486 374.215 231.486 374.215C231.486 374.215 271.253 347.819 319.776 380.456Z" fill="#00759F"/>
<path d="M319.274 381.805C319.274 381.805 299.878 383.897 274.001 354.274C255.144 332.677 251.903 297.054 251.903 297.054C251.903 297.054 308.503 311.08 319.274 381.805Z" fill="#005CB4"/>
<path d="M318.401 381.274C318.401 381.274 300.723 373.015 293.889 334.249C288.903 305.992 304.548 273.83 304.548 273.83C304.548 273.83 345.708 315.172 318.401 381.274Z" fill="#741AAC"/>
<path d="M668.058 388.25C668.058 388.25 677.472 401.039 709.421 400.267C732.708 399.709 755.79 382.046 755.79 382.046C755.79 382.046 716.274 355.818 668.058 388.25Z" fill="#00759F"/>
<path d="M668.55 389.589C668.55 389.589 687.816 391.673 713.535 362.226C732.281 340.769 735.493 305.36 735.493 305.36C735.493 305.36 679.255 319.311 668.55 389.589Z" fill="#005CB4"/>
<path d="M669.423 389.069C669.423 389.069 686.989 380.856 693.777 342.341C698.725 314.261 683.183 282.303 683.183 282.303C683.183 282.303 642.283 323.385 669.423 389.069Z" fill="#741AAC"/>
<path opacity="0.3" d="M145.76 217.922L315.616 144.184L529.538 395.208L140.347 232.134" fill="#83FFFF"/>
<path d="M315.615 144.184H673.247V393.673H315.615V144.184Z" fill="url(#paint14_linear_187_6064)"/>
<path d="M340.889 158.712H659.153V294.627H340.889V158.712Z" fill="url(#paint15_linear_187_6064)"/>
<path d="M340.889 302.142H506.028V381.284H340.889V302.142Z" fill="url(#paint16_linear_187_6064)"/>
<path d="M430.394 231.399H447.05V291.306H430.394V231.399Z" fill="#A600A9"/>
<path d="M449.224 220.052H465.881V291.306H449.224V220.052Z" fill="url(#paint17_linear_187_6064)"/>
<path d="M468.127 181.211H484.784V291.316H468.127V181.211Z" fill="#A600A9"/>
<path d="M328.874 175.323C330.935 175.323 332.607 173.649 332.607 171.584C332.607 169.519 330.935 167.845 328.874 167.845C326.813 167.845 325.142 169.519 325.142 171.584C325.142 173.649 326.813 175.323 328.874 175.323Z" fill="url(#paint18_linear_187_6064)"/>
<path d="M328.874 200.65C330.935 200.65 332.607 198.976 332.607 196.911C332.607 194.846 330.935 193.172 328.874 193.172C326.813 193.172 325.142 194.846 325.142 196.911C325.142 198.976 326.813 200.65 328.874 200.65Z" fill="url(#paint19_linear_187_6064)"/>
<path d="M328.874 228.46C330.935 228.46 332.607 226.786 332.607 224.721C332.607 222.656 330.935 220.982 328.874 220.982C326.813 220.982 325.142 222.656 325.142 224.721C325.142 226.786 326.813 228.46 328.874 228.46Z" fill="url(#paint20_linear_187_6064)"/>
<path d="M630.649 330.817C618.198 334.453 618.244 328.668 603.388 326.138C588.542 323.608 583.937 328.668 576.778 333.905C569.629 339.132 558.571 333.653 551.756 331.328C544.931 329.003 534.718 332.658 526.761 339.243C524.152 341.41 520.503 342.629 516.789 343.308V372.652H658.067V311.312C648.93 316.186 640.574 327.915 630.649 330.817Z" fill="url(#paint21_linear_187_6064)"/>
<path d="M630.649 339.439C618.198 343.075 618.244 337.29 603.388 334.76C588.542 332.23 583.937 337.29 576.778 342.527C569.62 347.763 558.571 342.276 551.756 339.95C544.931 337.625 534.718 341.28 526.761 347.865C524.152 350.033 520.503 351.251 516.789 351.93V381.274H658.067V319.935C648.93 324.818 640.574 336.537 630.649 339.439Z" fill="#00759F"/>
<path d="M356.71 227.632H373.367V291.306H356.71V227.632Z" fill="#A600A9"/>
<path d="M375.038 208.891H391.695V291.307H375.038V208.891Z" fill="url(#paint22_linear_187_6064)"/>
<path d="M393.236 251.517H409.893V291.315H393.236V251.517Z" fill="url(#paint23_linear_187_6064)"/>
<path d="M411.686 263.068H428.342V291.306H411.686V263.068Z" fill="url(#paint24_linear_187_6064)"/>
<path d="M463.225 331.784H468.675V372.987H463.225V331.784Z" fill="url(#paint25_linear_187_6064)"/>
<path d="M454.832 349.121H460.282V372.978H454.832V349.121Z" fill="#005CB4"/>
<path d="M446.438 345.401H451.889V372.988H446.438V345.401Z" fill="#A600A9"/>
<path d="M438.045 361.863H443.495V372.987H438.045V361.863Z" fill="#005CB4"/>
<path d="M480.021 322.781H485.472V372.978H480.021V322.781Z" fill="#00759F"/>
<path d="M471.618 327.375H477.068V372.987H471.618V327.375Z" fill="url(#paint26_linear_187_6064)"/>
<path d="M496.809 317.814H502.259V372.978H496.809V317.814Z" fill="#A600A9"/>
<path d="M488.415 306.923H493.865V372.988H488.415V306.923Z" fill="#005CB4"/>
<path d="M443.347 378.159C443.347 378.289 442.27 378.391 440.933 378.391C439.605 378.391 438.519 378.289 438.519 378.159C438.519 378.029 439.596 377.917 440.933 377.917C442.27 377.917 443.347 378.029 443.347 378.159ZM451.629 378.159C451.629 378.289 450.552 378.391 449.215 378.391C447.887 378.391 446.81 378.289 446.81 378.159C446.81 378.029 447.887 377.917 449.215 377.917C450.552 377.917 451.629 378.029 451.629 378.159ZM459.901 378.159C459.901 378.289 458.824 378.391 457.497 378.391C456.169 378.391 455.092 378.289 455.092 378.159C455.092 378.029 456.169 377.917 457.497 377.917C458.824 377.917 459.901 378.029 459.901 378.159ZM468.174 378.159C468.174 378.289 467.097 378.391 465.769 378.391C464.442 378.391 463.355 378.289 463.355 378.159C463.355 378.029 464.432 377.917 465.769 377.917C467.097 377.917 468.174 378.029 468.174 378.159ZM476.456 378.159C476.456 378.289 475.379 378.391 474.051 378.391C472.724 378.391 471.637 378.289 471.637 378.159C471.637 378.029 472.714 377.917 474.051 377.917C475.379 377.917 476.456 378.029 476.456 378.159ZM484.729 378.159C484.729 378.289 483.652 378.391 482.315 378.391C480.987 378.391 479.901 378.289 479.901 378.159C479.901 378.029 480.978 377.917 482.315 377.917C483.652 377.917 484.729 378.029 484.729 378.159ZM493.011 378.159C493.011 378.289 491.934 378.391 490.597 378.391C489.269 378.391 488.192 378.289 488.192 378.159C488.192 378.029 489.269 377.917 490.597 377.917C491.925 377.917 493.011 378.029 493.011 378.159ZM501.284 378.159C501.284 378.289 500.207 378.391 498.87 378.391C497.542 378.391 496.465 378.289 496.465 378.159C496.465 378.029 497.542 377.917 498.87 377.917C500.207 377.917 501.284 378.029 501.284 378.159Z" fill="#1A2E35"/>
<path opacity="0.5" d="M150.421 415.967C178.429 415.967 201.134 412.623 201.134 408.498C201.134 404.374 178.429 401.03 150.421 401.03C122.412 401.03 99.707 404.374 99.707 408.498C99.707 412.623 122.412 415.967 150.421 415.967Z" fill="#000640"/>
<path d="M155.972 238.504L149.213 268.249C149.027 269.058 149.575 269.858 150.401 269.97L171.441 272.992C172.174 273.095 172.861 272.62 173.029 271.904L179.788 242.169C179.974 241.36 179.426 240.56 178.609 240.439L157.569 237.416C156.827 237.305 156.139 237.779 155.972 238.504Z" fill="black"/>
<path d="M157.291 239.462L150.819 267.933L171.71 270.937L178.182 242.467L157.291 239.462Z" fill="url(#paint27_linear_187_6064)"/>
<path d="M175.962 244.56L158.219 242.011M175.368 247.257L157.616 244.699M167.977 249.489L156.882 247.889M167.188 251.796L156.093 250.205M166.399 254.112L155.304 252.521M170.466 266.891L159.38 265.301" stroke="#A1D2F0" stroke-width="1.481" stroke-linecap="round" stroke-linejoin="round"/>
<path d="M147.876 268.593C149.064 268.035 149.956 266.993 150.801 265.98L153.308 262.994C153.642 262.603 153.985 262.166 154.022 261.655C152.62 261.543 151.72 263.366 150.318 263.468C150.968 261.162 151.905 258.929 153.103 256.846C153.391 256.334 153.707 255.748 153.502 255.2C151.989 255.776 150.708 256.855 149.612 258.046C148.842 258.883 148.127 259.785 147.505 260.734C145.657 263.533 144.506 266.752 143.726 270.025" fill="url(#paint28_linear_187_6064)"/>
<path d="M141.887 310.559L135.351 325.571C138.108 330.231 139.696 335.737 139.909 341.308C140.021 344.21 139.761 347.103 139.844 350.005C139.854 350.209 139.882 350.432 139.928 350.637C140.801 346.34 141.46 342.796 141.711 340.499C142.426 334.044 142.426 323.785 142.203 310.541C142.11 310.541 141.999 310.541 141.887 310.559Z" fill="#F2A181"/>
<path d="M141.851 292.552L126.828 279.856C126.828 279.856 119.836 289.353 122.473 298.514C123.773 303.016 125.398 305.257 126.104 307.397C126.763 309.396 131.285 337.662 130.95 339.736C130.616 341.801 128.183 347.586 127.255 353.669C126.234 360.356 126.308 380.846 125.667 389.134H125.658C125.658 389.134 125.147 395.319 124.414 396.667C123.69 398.016 122.659 399.523 122.483 401.355C122.38 402.415 122.965 403.541 124.182 404.164C125.398 404.787 126.215 404.136 126.651 404.192C129.195 404.499 129.65 406.433 134.014 407.159C135.361 407.382 137.422 406.926 138.601 405.996C139.065 405.633 139.047 405.048 138.787 404.638C138.527 404.238 135.305 403.132 133.856 402.192C132.473 401.299 131.117 398.844 130.737 398.007C130.644 397.793 130.662 397.179 130.746 396.407C130.941 395.086 131.164 393.71 131.405 392.287C131.6 391.273 131.758 390.538 131.758 390.538L131.712 390.529C134.896 372.522 140.82 348.73 141.73 340.527C142.733 331.365 142.324 314.633 141.851 292.552Z" fill="url(#paint29_linear_187_6064)"/>
<path d="M138.935 406.294C139.25 405.745 139.334 404.926 139.037 404.722C138.628 404.443 137.161 403.476 136.316 403.085C135.472 402.694 134.125 402.35 134.599 402.611C135.072 402.871 134.199 403.829 133.41 403.773C130.671 403.606 128.656 401.783 127.097 401.392C124.85 400.825 123.903 398.165 123.801 397.737C123.373 398.007 122.389 400.155 122.185 400.825C122.009 401.439 121.674 402.545 121.851 403.178C121.971 403.615 122.231 404.499 122.101 405.429C122.101 405.429 122.547 405.773 123.717 406.015C124.46 406.173 125.462 406.043 125.462 406.043L125.657 404.629C125.657 404.629 126.27 404.61 127.05 404.768C127.83 404.926 129.102 405.671 129.176 405.764C129.492 406.136 129.743 406.824 130.151 407.028C131.247 407.577 132.352 407.847 133.745 407.931C136.679 408.079 138.387 407.224 138.935 406.294Z" fill="black"/>
<path d="M162.36 406.015C162.035 405.662 158.554 405.094 156.929 404.406C155.378 403.755 153.493 401.662 153.122 400.769C152.751 399.886 152.843 395.384 152.89 393.496C153.215 380.484 155.62 348.684 155.963 341.076C156.567 327.84 154.849 314.177 149.77 292.934L130.838 278.378C130.838 278.378 125.537 288.246 127.31 297.687C128.341 303.165 132.872 304.002 133.642 306.132C134.413 308.262 145.861 342.573 145.861 342.573C145.861 342.573 143.633 349.995 143.503 358.124C143.391 365.063 146.53 385.99 147.115 393.961C147.18 395.514 147.449 399.253 146.994 400.435C146.437 401.886 144.998 403.597 145.072 405.429C145.109 406.499 145.88 407.503 147.226 407.922C148.563 408.34 149.315 407.559 149.779 407.54C152.444 407.429 153.187 409.27 157.792 409.261C159.213 409.261 161.274 408.48 162.37 407.354C162.778 406.955 162.685 406.378 162.36 406.015Z" fill="url(#paint30_linear_187_6064)"/>
<path d="M162.76 407.652C163.011 407.057 162.974 406.229 162.649 406.08C162.184 405.875 160.541 405.15 159.613 404.908C158.684 404.657 157.254 404.536 157.774 404.713C158.294 404.89 157.533 405.978 156.706 406.061C153.856 406.34 151.516 404.871 149.854 404.741C147.449 404.555 146.567 402.081 146.41 401.662C146.01 401.997 144.822 404.276 144.71 404.983C144.608 405.615 144.432 406.768 144.701 407.364C144.887 407.773 145.286 408.61 145.277 409.54C145.277 409.54 145.787 409.8 147.032 409.856C147.821 409.884 148.833 409.596 148.833 409.596V408.163C148.833 408.163 149.464 408.043 150.291 408.07C151.117 408.098 152.138 408.526 152.64 408.898C153.03 409.196 153.438 409.689 153.902 409.81C155.239 410.145 156.196 410.238 157.644 410.089C160.68 409.782 162.324 408.656 162.76 407.652Z" fill="black"/>
<path d="M127.227 278.257C125.945 279.671 121.368 287.316 121.312 293.529C121.266 299.752 123.476 303.742 123.671 305.035C125.119 314.54 126.53 325.999 126.53 326.622C126.53 327.245 131.915 330.845 139.158 330.389C152.537 329.543 157.737 326.036 157.737 326.036C157.737 326.036 157.105 303.016 155.044 291.669C154.013 285.986 149.51 276.825 149.51 276.825" fill="url(#paint31_linear_187_6064)"/>
<path d="M115.018 253.405C115.018 253.405 117.172 264.129 117.738 266.035C118.304 267.942 121.099 280.061 123.745 279.847C126.391 279.633 140.904 267.505 140.904 267.505L138.852 263.385L126.076 269.486C126.076 269.486 124.924 255.637 123.912 252.335" fill="white"/>
<path d="M119.957 260.008C121.313 264.798 124.079 269.839 124.906 273.56C125.073 274.304 133.921 271.086 133.94 267.756" fill="url(#paint32_linear_187_6064)"/>
<path d="M118.825 247.164C118.825 247.164 118.36 256.12 119.976 260.641C121.573 260.613 122.975 260.241 122.975 260.241L118.825 247.164Z" fill="#B03D44"/>
<path d="M143.912 210.425C146.465 213.736 145.964 218.405 145.332 222.544C145.017 224.637 144.692 226.73 144.376 228.822C144.227 229.818 144.023 230.906 143.253 231.548C142.473 232.189 141.358 232.18 140.346 232.143L140.374 237.342C137.412 237.407 134.46 237.426 131.498 237.379C131.498 236.161 131.229 234.952 130.737 233.854C129.288 233.826 128.323 232.375 127.756 231.036C127.106 229.501 126.623 227.892 126.169 226.283C125.556 224.153 124.971 221.986 124.915 219.763C124.859 217.54 125.389 215.234 126.791 213.522C127.747 212.35 129.056 211.523 130.393 210.825C132.232 209.867 134.432 209.114 136.326 209.951" fill="white"/>
<path d="M141.34 218.024C141.572 218.387 141.516 218.879 141.739 219.252C142.111 219.884 142.593 220.107 143.253 220.414C144.311 220.907 144.07 222.46 144.033 223.149C144.831 222.618 144.961 221.158 145.156 220.423C145.37 219.596 145.509 218.74 145.76 217.921C145.992 217.122 146.4 216.368 146.474 215.522C146.734 212.611 144.915 209.188 142.705 207.56C141.099 206.37 138.657 206.416 136.846 207.625C136.085 208.137 135.509 208.9 135.175 209.755C135.026 210.118 134.933 210.546 135.11 210.899" fill="black"/>
<path d="M127.097 238.579C127.245 237.565 127.524 236.384 128.462 235.984C128.722 235.872 129.009 235.835 129.297 235.807C132.185 235.491 135.091 235.351 137.988 235.398C139.185 235.417 140.43 235.482 141.507 236.012C143.187 236.858 144.116 238.672 144.933 240.374" fill="url(#paint33_linear_187_6064)"/>
<path d="M150.541 258.028C150.541 258.976 150.012 260.25 149.844 260.743C149.185 261.088 146.567 261.646 145.063 260.957C144.729 257.823 142.899 251.796 142.899 251.796C142.899 251.796 150.541 257.153 150.541 258.028Z" fill="#B03D44"/>
<path d="M147.18 255.842C147.18 255.842 155.852 276.825 159.612 276.825C162.351 276.825 169.055 257.451 169.055 257.451L164.812 255.442L160.086 263.552L155.304 248.419" fill="white"/>
<path d="M163.976 256.883C163.976 256.883 165.378 254.67 165.275 253.098C165.238 252.502 164.876 249.647 165.173 249.089C165.47 248.531 166.185 246.689 166.594 246.336C167.002 245.982 168.507 245.406 168.878 245.657C169.249 245.908 169.704 244.736 170.317 244.838C170.93 244.941 171.431 245.452 171.431 246.01C171.431 246.568 172.248 246.671 172.35 247.08C172.453 247.489 172.406 247.843 172.555 248.15C172.703 248.456 173.158 248.308 173.316 249.07C173.465 249.768 173.27 249.833 173.316 250.196C173.363 250.549 173.669 250.521 173.567 251.2C173.465 251.879 173 252.763 172.592 253.525C172.183 254.288 171.348 255.246 170.224 255.925C169.676 256.26 169.37 256.846 168.841 257.832" fill="white"/>
<path d="M166.307 240.672C166.195 240.504 165.908 240.225 165.555 240.467C165.211 240.709 165.313 241.127 165.388 241.304L167.95 247.117C167.95 247.117 168.154 247.359 168.554 247.006C168.981 246.624 168.851 246.438 168.851 246.438C168.851 246.438 166.409 240.839 166.307 240.672Z" fill="black"/>
<path d="M168.999 246.057C168.507 246.931 167.941 247.21 167.44 247.685C167.04 248.057 167.087 248.299 166.65 248.689C167.421 248.634 167.291 248.178 168.285 247.452C168.749 247.117 169.222 246.755 169.315 246.187C169.352 246.001 169.12 245.89 168.999 246.057Z" fill="black"/>
<path d="M150.55 259.664C153.345 259.153 155.508 257.209 157.727 254.94C156.492 251.526 154.737 243.127 151.683 239.918C148.526 236.617 143.206 237.026 140.355 237.119C137.403 236.989 134.97 237.342 131.442 237.5C129.093 237.603 126.753 237.882 124.45 238.384C124.19 238.44 123.93 238.505 123.67 238.57V238.542C123.67 238.542 119.436 238.998 117.282 240.644C111.804 244.839 116.048 260.083 116.048 260.083C116.048 260.083 115.778 260.892 119.455 260.688C120.077 260.65 120.681 260.595 121.256 260.52C123.169 265.012 127.978 274.276 126.576 276.257C126.214 276.769 125.295 277.755 125.184 278.397C124.775 280.75 130.095 281.587 132.37 281.773C135.833 282.061 139.817 281.866 143.289 281.708C145.926 281.587 151.683 280.666 152.091 277.401C152.175 276.76 151.859 276.248 151.543 275.783C151.135 275.188 150.206 274.472 149.872 273.811C149.074 272.23 148.368 265.58 148.646 263.887C148.86 262.529 149.788 261.646 150.55 259.664Z" fill="url(#paint34_linear_187_6064)"/>
<path d="M141.711 330.184C140.857 324.66 135.583 307.546 135.361 307.071C132.482 304.839 130.588 302.533 129.632 300.672C128.982 304.421 130.69 308.132 132.287 311.592C135.082 317.628 136.744 324.185 139.149 330.389" fill="url(#paint35_linear_187_6064)"/>
<path d="M140.856 226.218C140.504 224.479 140.532 223.493 141.098 222.33C141.284 221.949 141.534 221.586 141.878 221.344C142.342 221.019 142.946 220.954 143.456 221.177C143.79 221.326 144.06 221.595 144.255 221.921C144.858 219.586 144.988 217.094 144.812 214.666C144.533 210.816 142.221 207.839 138.832 206.444C132.565 203.868 123.568 206.416 121.024 212.574C119.102 217.224 120.077 223.939 123.754 227.846C127.013 231.296 131.692 231.808 136.019 231.092C138.229 230.729 141.646 230.943 142.788 227.929C142.881 227.697 142.676 227.464 142.444 227.483C141.544 227.557 140.921 226.544 140.856 226.218Z" fill="black"/>
<path d="M128.638 228.934C126.837 228.422 124.887 229.436 123.68 230.887C122.288 232.552 121.693 235.147 122.984 236.877C123.467 237.528 124.163 237.983 124.869 238.383C127.023 239.583 129.567 240.29 131.962 239.704C134.349 239.118 136.447 236.97 136.419 234.505C136.391 232.273 134.766 230.412 133.123 228.906" fill="black"/>
<path opacity="0.5" d="M677.834 411.214C677.834 416.674 655.699 421.101 628.402 421.101C601.105 421.101 578.97 416.674 578.97 411.214C578.97 405.754 601.095 401.327 628.402 401.327C655.709 401.327 677.834 405.754 677.834 411.214Z" fill="#000640"/>
<path d="M612.135 245.964L618.69 274.806C618.866 275.588 618.337 276.36 617.538 276.481L597.13 279.42C596.425 279.522 595.747 279.057 595.589 278.359L589.034 249.517C588.858 248.726 589.387 247.954 590.185 247.843L610.593 244.913C611.308 244.801 611.977 245.266 612.135 245.964Z" fill="black"/>
<path d="M610.862 246.894L617.139 274.518L596.87 277.429L590.594 249.805L610.862 246.894Z" fill="url(#paint36_linear_187_6064)"/>
<path d="M592.739 251.842L609.963 249.368M593.324 254.456L610.538 251.982M600.492 256.623L611.253 255.07M601.253 258.864L612.015 257.311M602.024 261.106L612.785 259.562M598.078 273.504L608.839 271.96" stroke="#A1D2F0" stroke-width="1.436" stroke-linecap="round" stroke-linejoin="round"/>
<path d="M619.99 275.16C618.839 274.611 617.975 273.606 617.158 272.62C616.35 271.653 615.533 270.686 614.726 269.718C614.401 269.337 614.066 268.919 614.029 268.426C615.394 268.314 616.267 270.081 617.623 270.183C616.991 267.942 616.081 265.775 614.921 263.757C614.642 263.264 614.336 262.687 614.531 262.157C615.998 262.715 617.242 263.766 618.31 264.919C619.062 265.728 619.749 266.603 620.352 267.523C622.144 270.239 623.258 273.364 624.02 276.536" fill="black"/>
<path d="M625.793 315.852L632.125 330.417C629.451 334.937 627.91 340.276 627.706 345.68C627.603 348.489 627.845 351.307 627.771 354.116C627.761 354.311 627.733 354.525 627.687 354.73C626.842 350.563 626.201 347.131 625.96 344.889C625.264 338.63 625.264 328.678 625.486 315.833C625.589 315.842 625.691 315.842 625.793 315.852Z" fill="#F2A181"/>
<path d="M625.84 298.394L640.408 286.079C640.408 286.079 647.185 295.287 644.632 304.179C643.379 308.55 641.8 310.717 641.113 312.791C640.473 314.726 636.09 342.155 636.415 344.154C636.74 346.163 639.098 351.772 639.999 357.669C640.992 364.151 640.918 384.028 641.54 392.073H641.55C641.55 392.073 642.051 398.072 642.757 399.374C643.462 400.686 644.456 402.146 644.632 403.913C644.734 404.936 644.159 406.034 642.979 406.638C641.8 407.243 641.011 406.61 640.584 406.666C638.114 406.964 637.678 408.843 633.444 409.54C632.135 409.754 630.139 409.317 628.987 408.405C628.542 408.052 628.56 407.485 628.811 407.094C629.062 406.703 632.181 405.625 633.592 404.722C634.939 403.857 636.248 401.476 636.619 400.658C636.712 400.444 636.694 399.858 636.61 399.105C636.415 397.821 636.202 396.482 635.969 395.114C635.784 394.128 635.635 393.412 635.635 393.412L635.682 393.403C632.599 375.945 626.852 352.86 625.97 344.898C624.976 336.035 625.375 319.814 625.84 298.394Z" fill="black"/>
<path d="M628.662 408.712C628.356 408.182 628.272 407.382 628.56 407.187C628.959 406.917 630.38 405.978 631.197 405.597C632.014 405.215 633.323 404.88 632.859 405.132C632.404 405.383 633.249 406.313 634.01 406.257C636.666 406.099 638.625 404.322 640.138 403.95C642.32 403.402 643.239 400.825 643.332 400.407C643.75 400.667 644.706 402.751 644.901 403.402C645.078 403.997 645.393 405.076 645.226 405.69C645.115 406.118 644.855 406.973 644.985 407.866C644.985 407.866 644.558 408.201 643.416 408.433C642.691 408.582 641.726 408.452 641.726 408.452L641.54 407.076C641.54 407.076 640.946 407.057 640.194 407.206C639.442 407.364 638.207 408.08 638.133 408.173C637.826 408.536 637.585 409.196 637.186 409.401C636.127 409.94 635.05 410.191 633.704 410.275C630.853 410.452 629.191 409.624 628.662 408.712Z" fill="black"/>
<path d="M605.942 408.452C606.258 408.108 609.628 407.559 611.216 406.889C612.72 406.257 614.549 404.229 614.902 403.364C615.255 402.499 615.171 398.137 615.134 396.305C614.818 383.683 612.488 352.841 612.154 345.456C611.569 332.621 613.231 319.367 618.161 298.756L636.526 284.637C636.526 284.637 641.67 294.217 639.943 303.369C638.94 308.68 634.549 309.499 633.806 311.564C633.063 313.628 621.958 346.907 621.958 346.907C621.958 346.907 624.122 354.106 624.243 361.984C624.354 368.718 621.299 389.013 620.733 396.742C620.668 398.258 620.408 401.876 620.854 403.02C621.401 404.434 622.785 406.089 622.72 407.866C622.683 408.898 621.94 409.884 620.631 410.284C619.331 410.693 618.607 409.931 618.161 409.912C615.571 409.8 614.856 411.586 610.39 411.586C609.015 411.586 607.01 410.823 605.951 409.735C605.534 409.354 605.627 408.796 605.942 408.452Z" fill="black"/>
<path d="M605.561 410.033C605.32 409.456 605.348 408.656 605.673 408.507C606.118 408.303 607.715 407.605 608.616 407.363C609.517 407.122 610.909 407.01 610.399 407.177C609.888 407.354 610.631 408.405 611.429 408.48C614.196 408.749 616.462 407.326 618.077 407.196C620.408 407.01 621.262 404.61 621.42 404.21C621.81 404.536 622.961 406.75 623.063 407.429C623.165 408.042 623.332 409.159 623.072 409.745C622.896 410.144 622.506 410.954 622.515 411.856C622.515 411.856 622.023 412.116 620.816 412.163C620.055 412.191 619.071 411.912 619.071 411.912V410.526C619.071 410.526 618.458 410.405 617.659 410.442C616.852 410.47 615.867 410.879 615.385 411.251C615.004 411.54 614.605 412.023 614.159 412.135C612.868 412.46 611.94 412.553 610.529 412.414C607.576 412.098 605.979 411.009 605.561 410.033Z" fill="black"/>
<path d="M640.027 284.525C641.271 285.893 645.709 293.306 645.756 299.342C645.802 305.378 643.657 309.247 643.471 310.503C642.06 319.72 647.947 366.123 647.947 366.727C647.947 367.332 640.454 373.406 633.462 374.205C618.105 375.963 603.621 369.369 603.621 369.369C603.621 369.369 606.258 333.765 613.045 297.538C614.076 292.031 618.412 283.14 618.412 283.14" fill="url(#paint37_linear_187_6064)"/>
<path d="M651.864 260.418C651.864 260.418 649.775 270.816 649.228 272.667C648.68 274.518 645.969 286.274 643.397 286.07C640.825 285.865 626.749 274.09 626.749 274.09L628.745 270.1L641.14 276.015C641.14 276.015 642.264 262.576 643.239 259.376" fill="black"/>
<path d="M648.169 254.372C648.169 254.372 648.624 263.059 647.046 267.449C645.495 267.421 644.14 267.068 644.14 267.068L648.169 254.372Z" fill="#B03D44"/>
<path d="M623.834 218.731C621.355 221.949 621.847 226.469 622.46 230.487C622.766 232.515 623.073 234.552 623.388 236.579C623.537 237.547 623.732 238.598 624.484 239.221C625.236 239.844 626.322 239.835 627.297 239.798L627.27 244.839C630.139 244.904 633.008 244.922 635.877 244.876C635.877 243.695 636.136 242.523 636.619 241.453C638.021 241.425 638.959 240.021 639.507 238.719C640.138 237.23 640.603 235.668 641.048 234.105C641.642 232.041 642.209 229.929 642.264 227.781C642.32 225.632 641.81 223.391 640.445 221.726C639.516 220.591 638.244 219.791 636.944 219.112C635.162 218.182 633.026 217.447 631.188 218.257" fill="white"/>
<path d="M626.332 226.106C626.109 226.46 626.155 226.934 625.951 227.297C625.598 227.911 625.124 228.125 624.484 228.422C623.453 228.906 623.695 230.403 623.723 231.082C622.943 230.562 622.822 229.157 622.636 228.432C622.423 227.632 622.293 226.804 622.051 226.004C621.828 225.223 621.429 224.497 621.355 223.679C621.104 220.851 622.868 217.54 625.004 215.95C626.554 214.796 628.931 214.843 630.686 216.015C631.429 216.508 631.986 217.252 632.311 218.08C632.45 218.433 632.552 218.852 632.376 219.187" fill="black"/>
<path d="M640.147 246.039C639.999 245.053 639.739 243.909 638.819 243.518C638.569 243.406 638.29 243.378 638.012 243.351C635.208 243.044 632.394 242.904 629.581 242.951C628.42 242.969 627.213 243.025 626.174 243.546C624.539 244.364 623.639 246.132 622.85 247.778" fill="url(#paint38_linear_187_6064)"/>
<path d="M617.408 264.901C617.408 265.821 617.919 267.049 618.086 267.542C618.727 267.868 621.271 268.416 622.728 267.756C623.044 264.715 624.827 258.864 624.827 258.864C624.827 258.864 617.408 264.054 617.408 264.901Z" fill="#B03D44"/>
<path d="M620.667 262.78C620.667 262.78 612.255 283.131 608.615 283.131C605.96 283.131 599.451 264.343 599.451 264.343L603.564 262.389L608.151 270.258L612.793 255.581" fill="black"/>
<path d="M604.373 263.803C604.373 263.803 603.008 261.654 603.11 260.129C603.147 259.543 603.49 256.781 603.203 256.241C602.915 255.702 602.228 253.916 601.829 253.572C601.429 253.228 599.972 252.669 599.619 252.921C599.266 253.172 598.82 252.028 598.226 252.13C597.632 252.232 597.14 252.725 597.14 253.265C597.14 253.804 596.35 253.907 596.248 254.306C596.146 254.706 596.193 255.051 596.053 255.348C595.905 255.646 595.468 255.497 595.311 256.241C595.171 256.92 595.357 256.985 595.311 257.329C595.264 257.673 594.967 257.646 595.06 258.306C595.162 258.966 595.608 259.822 596.007 260.566C596.406 261.31 597.214 262.231 598.3 262.891C598.839 263.217 599.127 263.784 599.637 264.742" fill="black"/>
<path d="M602.116 248.075C602.218 247.917 602.506 247.647 602.84 247.88C603.175 248.112 603.073 248.521 602.998 248.689L600.51 254.325C600.51 254.325 600.306 254.558 599.925 254.214C599.507 253.851 599.637 253.665 599.637 253.665C599.637 253.665 602.014 248.233 602.116 248.075Z" fill="white"/>
<path d="M599.498 253.293C599.971 254.139 600.519 254.409 601.011 254.874C601.401 255.237 601.345 255.469 601.772 255.851C601.02 255.795 601.15 255.348 600.185 254.651C599.739 254.325 599.275 253.972 599.182 253.423C599.154 253.237 599.386 253.135 599.498 253.293Z" fill="black"/>
<path d="M617.39 266.491C614.679 265.989 612.581 264.11 610.427 261.906C611.624 258.604 613.324 250.447 616.285 247.34C619.34 244.141 624.502 244.531 627.269 244.624C630.129 244.494 632.487 244.838 635.913 244.996C638.188 245.099 640.463 245.359 642.701 245.852C642.961 245.908 643.211 245.964 643.453 246.029L643.462 246.001C643.462 246.001 647.575 246.438 649.655 248.038C654.966 252.112 650.853 266.891 650.853 266.891C650.853 266.891 651.113 267.681 647.547 267.477C646.944 267.44 646.359 267.384 645.802 267.309C643.945 271.672 639.275 280.647 640.639 282.572C640.992 283.075 641.884 284.023 641.986 284.646C642.376 286.935 637.223 287.734 635.013 287.92C631.652 288.199 627.789 288.013 624.419 287.855C621.866 287.734 616.285 286.841 615.886 283.679C615.812 283.056 616.118 282.563 616.425 282.107C616.815 281.531 617.715 280.833 618.04 280.201C618.82 278.666 619.498 272.22 619.229 270.574C619.034 269.272 618.133 268.416 617.39 266.491Z" fill="#A600A9"/>
<path d="M626.805 234.049C627.139 232.357 627.121 231.408 626.564 230.282C626.378 229.91 626.136 229.557 625.812 229.324C625.591 229.17 625.334 229.075 625.066 229.047C624.798 229.019 624.527 229.06 624.28 229.166C623.955 229.306 623.695 229.566 623.509 229.883C622.924 227.613 622.803 225.195 622.97 222.842C623.24 219.103 625.487 216.219 628.773 214.861C634.855 212.36 643.583 214.834 646.052 220.805C647.919 225.316 646.972 231.836 643.406 235.612C640.249 238.96 635.7 239.453 631.512 238.765C629.368 238.412 626.053 238.625 624.948 235.705C624.864 235.482 625.059 235.249 625.282 235.268C626.136 235.352 626.74 234.366 626.805 234.049Z" fill="black"/>
<path d="M638.652 236.691C640.407 236.198 642.292 237.184 643.461 238.579C644.808 240.197 645.393 242.708 644.13 244.392C643.656 245.024 642.988 245.471 642.301 245.852C640.212 247.015 637.742 247.703 635.421 247.126C633.1 246.559 631.066 244.476 631.094 242.085C631.122 239.918 632.7 238.114 634.288 236.654" fill="black"/>
<path d="M625.811 229.325C625.811 229.325 627.594 229.343 625.263 235.277C622.933 241.211 622.71 252.419 622.71 252.419C622.71 252.419 629.07 255.06 637.631 254.837C646.191 254.614 647.064 254.614 647.287 253.954C647.51 253.293 652.774 221.205 641.14 215.708" fill="black"/>
<path opacity="0.5" d="M572.08 464.788C600.088 464.788 622.793 461.444 622.793 457.319C622.793 453.194 600.088 449.851 572.08 449.851C544.071 449.851 521.366 453.194 521.366 457.319C521.366 461.444 544.071 464.788 572.08 464.788Z" fill="#000640"/>
<path d="M513.901 354.553H562.034L559.954 349.93H511.998L513.901 354.553Z" fill="black"/>
<path d="M605.198 457.524H599.498L528.376 276.964H534.615L605.198 457.524Z" fill="black"/>
<path d="M503.679 328.631H551.811L549.731 324.008H501.775L503.679 328.631ZM493.363 302.346H541.496L539.416 297.714H491.46L493.363 302.346ZM553.891 457.524H548.19L477.068 276.964H483.317L553.891 457.524Z" fill="black"/>
<path d="M544.3 433.053H592.441L590.362 428.43H542.406L544.3 433.053ZM534.17 406.759H582.302L580.223 402.136H532.267L534.17 406.759ZM523.938 381.023H572.08L570 376.4H522.044L523.938 381.023Z" fill="black"/>
<path d="M540.93 179.853L539.165 176.179C539.165 176.179 535.767 177.267 533.056 177.406C530.345 177.546 529.259 178.085 529.259 178.085L527.086 181.62C527.086 181.62 535.498 183.247 540.93 179.853Z" fill="url(#paint39_linear_187_6064)"/>
<path d="M540.93 179.853C540.93 179.853 545.405 179.444 547.717 180.801C550.029 182.159 552.471 190.726 553.279 196.576C554.096 202.426 555.452 225.13 555.591 229.753C555.73 234.375 555.591 244.848 555.591 244.848C555.591 244.848 543.372 247.434 534.96 247.164C526.548 246.894 519.891 240.225 519.891 240.225C519.891 240.225 520.569 230.571 521.655 227.446C522.741 224.321 524.505 218.61 523.419 213.848C522.333 209.086 519.074 195.358 519.891 190.186C520.708 185.015 519.891 184.066 522.741 183.117C525.592 182.169 527.086 181.62 527.086 181.62C527.086 181.62 534.282 183.248 540.93 179.853Z" fill="url(#paint40_linear_187_6064)"/>
<path d="M529.528 191.228C529.528 191.228 528.804 196.939 524.459 203.468C520.114 209.997 514.691 216.433 512.881 217.429C511.07 218.424 507.273 218.247 505.193 216.61C503.113 214.982 488.722 198.297 488.722 198.297C488.722 198.297 488.629 196.306 490.263 194.576C491.888 192.855 493.522 192.855 493.522 192.855L507.366 204.547C507.366 204.547 516.14 189.684 518.312 187.052C520.485 184.419 522.658 183.787 524.375 184.057C526.093 184.336 529.714 187.414 529.528 191.228Z" fill="url(#paint41_linear_187_6064)"/>
<path d="M492.519 192.948C492.519 192.948 489.529 189.777 487.904 188.865C486.279 187.963 481.024 186.875 480.3 186.959C479.576 187.052 479.557 187.545 480.458 188C481.359 188.456 483.373 189.042 483.373 189.042C483.373 189.042 480.839 190.586 480.839 191.674C480.839 192.762 482.463 194.846 483.466 194.846C484.46 194.846 485.908 194.576 485.908 194.576L488.898 196.846C488.898 196.846 489.529 194.037 492.519 192.948Z" fill="white"/>
<path d="M548.255 181.211C548.116 181.062 561.217 192.428 564.81 197.599C568.403 202.771 571.458 210.314 570.984 212.351C570.511 214.387 566.843 218.201 564.401 220.238C561.959 222.275 555.506 226.628 555.506 226.628L554.968 213.709C554.968 213.709 559.378 209.625 558.97 209.086C558.561 208.546 554.086 204.054 554.086 204.054C554.086 204.054 553.473 195.218 552.052 190.326C550.632 185.424 549.546 182.569 548.255 181.211Z" fill="url(#paint42_linear_187_6064)"/>
<path d="M520.55 240.83C522.435 242.486 528.108 246.932 534.951 247.155C543.363 247.424 555.582 244.839 555.582 244.839C555.582 244.839 554.087 254.763 552.871 258.707C551.645 262.65 550.837 267.682 550.698 269.31C550.559 270.937 553 298.273 553.409 306.021C553.818 313.768 552.778 338.881 552.778 338.881H545.173C545.173 338.881 542.416 308.606 539.974 291.883C537.532 275.16 536.306 266.185 536.306 266.185L534.542 269.179C534.542 269.179 533.725 298.552 533.047 311.601C532.37 324.65 530.921 339.02 530.921 339.02L522.908 339.43C522.908 339.43 519.742 289.716 519.334 275.439C518.962 261.971 520.392 242.951 520.55 240.83Z" fill="url(#paint43_linear_187_6064)"/>
<path d="M552.331 338.974C552.331 338.974 553.51 345.587 553.51 346.498C553.51 347.4 553.148 350.488 553.148 350.488C553.148 350.488 547.624 350.674 543.826 350.581C540.029 350.488 535.591 349.586 535.591 349.586C535.591 349.586 534.867 347.14 535.86 345.782C536.853 344.424 540.744 344.154 541.923 342.797C543.102 341.439 545.182 338.899 545.182 338.899C545.182 338.899 551.245 339.337 552.331 338.974Z" fill="url(#paint44_linear_187_6064)"/>
<path d="M530.345 338.974C530.345 338.974 531.524 345.587 531.524 346.498C531.524 347.4 531.162 350.488 531.162 350.488C531.162 350.488 525.647 350.674 521.84 350.581C518.043 350.488 513.604 349.586 513.604 349.586C513.604 349.586 512.88 347.14 513.874 345.782C514.867 344.424 518.757 344.154 519.937 342.797C521.116 341.439 523.196 338.899 523.196 338.899C523.196 338.899 529.259 339.337 530.345 338.974Z" fill="url(#paint45_linear_187_6064)"/>
<path d="M539.119 175.723C539.119 175.723 540.168 162.079 539.026 158.498C537.671 154.238 534.95 151.243 530.698 151.066C526.445 150.88 519.389 151.243 517.486 153.605C515.582 155.959 516.576 159.409 516.761 160.497C516.947 161.586 518.748 162.767 518.748 162.767C518.748 162.767 521.459 162.041 522.277 162.674C523.094 163.306 524.356 166.115 524.356 166.115C524.356 166.115 525.276 163.427 526.436 163.939C529.333 165.204 528.423 169.017 527.977 169.826C527.402 170.868 527.977 170.096 527.977 170.096L534.403 177.072C534.412 177.081 537.039 177.36 539.119 175.723Z" fill="black"/>
<path d="M522.286 162.674C523.103 163.307 524.366 166.116 524.366 166.116C524.366 166.116 525.285 163.428 526.446 163.939C529.342 165.204 528.433 169.017 527.987 169.827C527.411 170.868 527.987 170.096 527.987 170.096L534.412 177.072L529.259 178.067L529.073 176.802C529.073 176.802 527.086 177.528 525.907 177.528C524.728 177.528 523.372 175.082 521.831 172.449C520.29 169.817 518.758 162.749 518.758 162.749C518.758 162.749 521.478 162.042 522.286 162.674Z" fill="white"/>
<path d="M217.847 330.221C217.847 330.221 232.071 330.221 237.001 329.403L241.932 328.584L260.158 326.287L258.533 332.11C258.533 332.11 252.052 334.416 246.388 335.932C240.715 337.448 229.713 340.425 228.004 340.852C226.296 341.271 217.076 343.233 217.076 343.233" fill="url(#paint46_linear_187_6064)"/>
<path d="M183.28 355.25C183.28 355.25 178.535 359.129 177.031 362.635C175.536 366.142 175.286 371.146 175.536 372.894C175.787 374.643 176.409 376.401 176.409 376.02C176.409 375.648 174.413 402.918 174.413 402.918C174.413 402.918 165.917 410.173 162.668 416.181C159.418 422.19 152.176 438.448 152.176 438.448C152.176 438.448 158.044 441.322 160.17 441.703L162.296 442.075C162.296 442.075 171.414 423.185 174.162 419.799C175.898 417.66 182.778 411.912 185.406 407.41C188.024 402.909 192.778 384.139 192.778 384.139C192.778 384.139 198.897 390.771 201.645 393.775C204.394 396.779 207.764 401.03 207.764 402.155C207.764 403.281 205.387 411.661 204.765 414.665C204.143 417.669 201.645 438.308 201.645 438.308C201.645 438.308 205.146 439.062 208.145 438.68C211.144 438.308 211.645 437.676 211.645 437.676C211.645 437.676 213.39 423.408 215.015 416.404C216.64 409.401 218.516 403.513 219.017 402.388C219.518 401.262 219.639 398.881 218.014 394.008C216.389 389.125 211.394 378.996 207.402 372.987L203.409 366.979C203.409 366.979 190.151 360.133 183.28 355.25Z" fill="black"/>
<path d="M192.481 385.32C193.707 378.521 194.468 372.894 194.468 372.894L189.584 392.928C188.303 400.267 182.611 411.102 182.611 411.102C182.611 411.102 182.611 411.13 182.621 411.177C183.735 409.903 184.719 408.628 185.415 407.438C187.634 403.597 191.395 389.468 192.481 385.32Z" fill="url(#paint47_linear_187_6064)"/>
<path d="M201.645 438.336C201.645 438.336 199.603 441.507 199.519 441.926C199.435 442.344 199.018 446.725 199.018 446.725L206.009 448.288L206.51 446.93C206.51 446.93 213.669 450.52 215.006 450.604C216.343 450.687 222.917 450.604 223.836 450.353C224.755 450.101 225.999 448.437 224.755 447.934C223.502 447.432 219.258 447.265 218.256 446.688C217.253 446.102 212.174 441.433 211.673 440.103C211.171 438.764 211.004 438.02 211.004 438.02C211.004 438.02 208.349 439.498 201.645 438.336Z" fill="url(#paint48_linear_187_6064)"/>
<path d="M152.37 438.708C152.37 438.708 150.123 441.833 149.687 443.21C149.251 444.586 147.812 448.967 147.812 448.967C147.812 448.967 149.873 450.595 151.312 451.153C152.751 451.711 153.057 451.841 153.057 451.841L154.06 450.836C154.06 450.836 157.431 454.092 160.309 454.836C163.178 455.589 168.99 455.84 170.986 455.338C172.983 454.836 173.92 452.901 173.113 452.213C172.305 451.525 169.557 451.274 167.867 449.832C166.177 448.39 163.057 445.823 162.621 444.512C162.184 443.2 162.305 442.075 162.305 442.075C162.305 442.075 161.488 442.652 152.37 438.708Z" fill="url(#paint49_linear_187_6064)"/>
<path d="M224.876 449.571C223.864 449.739 222.332 449.795 220.085 449.925C215.675 450.176 214.338 448.837 209.342 447.088C205.378 445.693 200.986 443.991 199.352 443.349C199.203 444.772 199.018 446.716 199.018 446.716L206.009 448.279L206.51 446.921C206.51 446.921 213.669 450.511 215.006 450.595C216.343 450.678 222.917 450.595 223.836 450.343C224.189 450.25 224.588 449.944 224.876 449.571Z" fill="url(#paint50_linear_187_6064)"/>
<path d="M171.209 454.594C169.631 455.096 162.212 455.18 158.888 453.59C156.177 452.297 150.773 447.535 148.842 445.805C148.331 447.367 147.812 448.967 147.812 448.967C147.812 448.967 149.873 450.595 151.312 451.153C152.751 451.711 153.057 451.841 153.057 451.841L154.06 450.836C154.06 450.836 157.431 454.092 160.309 454.836C163.178 455.589 168.99 455.84 170.986 455.338C172.296 455.013 173.15 454.064 173.354 453.255C172.704 453.896 171.933 454.371 171.209 454.594ZM183.279 355.25L184.533 353L204.43 365.258L203.39 367.007C203.39 367.016 187.615 358.841 183.279 355.25Z" fill="black"/>
<path d="M184.533 352.999C184.217 352.804 198.441 334.648 203.938 328.807C209.434 322.966 214.346 319.711 218.264 319.962C222.182 320.213 228.255 325.887 229.508 331.058C230.762 336.23 225.757 346.907 224.596 348.823C223.427 350.739 217.689 354.078 213.269 357.501C208.859 360.924 207.689 362.505 206.445 363.426C205.191 364.346 204.448 365.258 204.448 365.258C204.448 365.258 187.364 354.757 184.533 352.999Z" fill="url(#paint51_linear_187_6064)"/>
<path d="M185.508 353.316C185.861 353.083 193.066 341.197 204.458 329.319C211.756 321.711 217.596 320.232 217.596 320.232C217.596 320.232 214.291 319.767 207.476 325.357C201.664 330.138 184.515 352.999 184.515 352.999L185.508 353.316Z" fill="white"/>
<path d="M227.828 327.143C227.828 327.143 235.405 321.637 236.574 320.558C237.744 319.47 243.074 318.977 245.813 320.307C248.561 321.646 251.811 329.152 251.727 331.486C251.644 333.821 249.898 335.653 249.898 335.653L247.233 334.984C247.233 334.984 245.154 337.318 244.402 337.737C243.649 338.155 242.572 338.155 242.572 338.155C242.572 338.155 240.827 341.745 240.242 341.745C239.657 341.745 237.828 340.499 237.828 340.499C237.828 340.499 232.248 342.415 231.997 341.913C231.746 341.41 228.914 337.411 228.914 337.411C228.914 337.411 231.245 332.23 227.828 327.143Z" fill="black"/>
<path d="M219.416 320.306C219.416 320.306 233.491 322.39 238.487 322.306L243.482 322.222L266.796 319.637L267.381 325.143C267.381 325.143 252.646 329.477 246.815 330.147C240.984 330.816 229.666 332.147 227.911 332.314C226.166 332.481 216.751 333.067 216.751 333.067" fill="url(#paint52_linear_187_6064)"/>
<path d="M266.88 320.725C266.88 320.725 270.789 318.977 271.29 317.972C271.792 316.967 271.624 313.721 272.209 312.382C272.794 311.043 275.375 307.462 275.877 307.462C276.378 307.462 276.712 307.546 276.462 309.796C276.211 312.047 275.626 314.8 275.626 315.889C275.626 316.977 275.877 320.139 275.125 321.06C274.373 321.981 272.961 322.306 271.959 322.809C270.956 323.311 267.214 324.064 267.214 324.064L266.88 320.725Z" fill="white"/>
<path d="M159.863 101.231H237.419V107.212H159.863V101.231Z" fill="#005CB4"/>
<path d="M197.15 113.937H274.706V119.917H197.15V113.937Z" fill="#00759F"/>
<path d="M106.921 125.135H245.181V131.115H106.921V125.135Z" fill="#4529AC"/>
<path d="M314.975 131.115H453.235V137.096H314.975V131.115Z" fill="#3129AC"/>
<path d="M335.41 118.41H384.629V124.391H335.41V118.41Z" fill="#4529AC"/>
<path d="M429.066 119.164H482.315V125.144H429.066V119.164Z" fill="#0075B4"/>
<path opacity="0.3" d="M585.079 121.405H638.327V127.386H585.079V121.405Z" fill="white"/>
<path opacity="0.1" d="M531.311 101.231H584.559V107.212H531.311V101.231Z" fill="white"/>
<path d="M318.262 60.8931H369.718V66.8736H318.262V60.8931Z" fill="#00759F"/>
<path d="M343.618 77.3281H404.016V83.3086H343.618V77.3281Z" fill="#313BAC"/>
<path d="M356.088 445.637C404.977 445.637 444.609 405.936 444.609 356.962C444.609 307.987 404.977 268.286 356.088 268.286C307.199 268.286 267.566 307.987 267.566 356.962C267.566 405.936 307.199 445.637 356.088 445.637Z" fill="url(#paint53_linear_187_6064)"/>
<path d="M356.088 268.295V356.971L432.511 312.205C417.145 285.93 388.678 268.295 356.088 268.295Z" fill="url(#paint54_linear_187_6064)"/>
<path opacity="0.3" d="M331.176 57.6753C328.465 57.6753 325.93 58.4194 323.758 59.7122C323.238 52.1412 316.952 46.1607 309.264 46.1607C307.602 46.1607 306.014 46.4583 304.529 46.9699C302.384 40.0314 295.931 34.9902 288.299 34.9902C287.723 34.9902 287.157 35.0274 286.6 35.0832C279.469 35.5297 273.536 40.3662 271.475 46.942C269.98 46.4211 268.383 46.1235 266.712 46.1235C259.024 46.1235 252.738 52.104 252.218 59.675C249.974 58.3382 247.411 57.6344 244.8 57.6381C236.768 57.6381 230.26 64.1581 230.26 72.1941C230.26 80.2302 236.768 86.7501 244.8 86.7501C245.338 86.7501 245.858 86.7222 246.387 86.6571H268.708C269.358 86.7315 270.017 86.7873 270.695 86.7873C271.28 86.7873 271.856 86.7594 272.431 86.7036H304.306C304.631 86.7222 304.956 86.7501 305.281 86.7501C305.615 86.7501 305.931 86.7222 306.256 86.7036H329.589C330.109 86.7594 330.638 86.7873 331.176 86.7873C339.208 86.7873 345.707 80.2674 345.707 72.2313C345.716 64.1953 339.208 57.6753 331.176 57.6753Z" fill="url(#paint55_linear_187_6064)"/>
</g>
<defs>
<linearGradient id="paint0_linear_187_6064" x1="37245.6" y1="5001.53" x2="37194.1" y2="4602.62" gradientUnits="userSpaceOnUse">
<stop stop-color="#7700BB"/>
<stop offset="1" stop-color="#00008B"/>
</linearGradient>
<linearGradient id="paint1_linear_187_6064" x1="70.6104" y1="19519" x2="70321.1" y2="19519" gradientUnits="userSpaceOnUse">
<stop stop-color="#7700BB"/>
<stop offset="1"/>
</linearGradient>
<linearGradient id="paint2_linear_187_6064" x1="2599.64" y1="4485.39" x2="2457.43" y2="1093.41" gradientUnits="userSpaceOnUse">
<stop stop-color="#88CFDA"/>
<stop offset="0.0506" stop-color="#93D1D5"/>
<stop offset="0.2502" stop-color="#BAD7C2"/>
<stop offset="0.4481" stop-color="#D8DBB3"/>
<stop offset="0.6414" stop-color="#EEDEA8"/>
<stop offset="0.8279" stop-color="#FBE0A2"/>
<stop offset="1" stop-color="#FFE1A0"/>
</linearGradient>
<linearGradient id="paint3_linear_187_6064" x1="521.266" y1="433.605" x2="521.266" y2="7405.86" gradientUnits="userSpaceOnUse">
<stop stop-color="#7633FF"/>
<stop offset="0.1585" stop-color="#7137FF"/>
<stop offset="0.3535" stop-color="#6243FF"/>
<stop offset="0.5676" stop-color="#4957FF"/>
<stop offset="0.7937" stop-color="#2672FF"/>
<stop offset="1" stop-color="#0090FF"/>
</linearGradient>
<linearGradient id="paint4_linear_187_6064" x1="536.698" y1="-1896" x2="536.698" y2="5076.3" gradientUnits="userSpaceOnUse">
<stop stop-color="#7633FF"/>
<stop offset="0.1585" stop-color="#7137FF"/>
<stop offset="0.3535" stop-color="#6243FF"/>
<stop offset="0.5676" stop-color="#4957FF"/>
<stop offset="0.7937" stop-color="#2672FF"/>
<stop offset="1" stop-color="#0090FF"/>
</linearGradient>
<linearGradient id="paint5_linear_187_6064" x1="551.244" y1="-419.054" x2="551.244" y2="6553.3" gradientUnits="userSpaceOnUse">
<stop stop-color="#7633FF"/>
<stop offset="0.1585" stop-color="#7137FF"/>
<stop offset="0.3535" stop-color="#6243FF"/>
<stop offset="0.5676" stop-color="#4957FF"/>
<stop offset="0.7937" stop-color="#2672FF"/>
<stop offset="1" stop-color="#0090FF"/>
</linearGradient>
<linearGradient id="paint6_linear_187_6064" x1="565.759" y1="168.409" x2="565.759" y2="7140.74" gradientUnits="userSpaceOnUse">
<stop stop-color="#7633FF"/>
<stop offset="0.1585" stop-color="#7137FF"/>
<stop offset="0.3535" stop-color="#6243FF"/>
<stop offset="0.5676" stop-color="#4957FF"/>
<stop offset="0.7937" stop-color="#2672FF"/>
<stop offset="1" stop-color="#0090FF"/>
</linearGradient>
<linearGradient id="paint7_linear_187_6064" x1="581.146" y1="-2035.95" x2="581.146" y2="4936.34" gradientUnits="userSpaceOnUse">
<stop stop-color="#7633FF"/>
<stop offset="0.1585" stop-color="#7137FF"/>
<stop offset="0.3535" stop-color="#6243FF"/>
<stop offset="0.5676" stop-color="#4957FF"/>
<stop offset="0.7937" stop-color="#2672FF"/>
<stop offset="1" stop-color="#0090FF"/>
</linearGradient>
<linearGradient id="paint8_linear_187_6064" x1="595.737" y1="-2896.92" x2="595.737" y2="4075.41" gradientUnits="userSpaceOnUse">
<stop stop-color="#7633FF"/>
<stop offset="0.1585" stop-color="#7137FF"/>
<stop offset="0.3535" stop-color="#6243FF"/>
<stop offset="0.5676" stop-color="#4957FF"/>
<stop offset="0.7937" stop-color="#2672FF"/>
<stop offset="1" stop-color="#0090FF"/>
</linearGradient>
<linearGradient id="paint9_linear_187_6064" x1="610.229" y1="-270.766" x2="610.229" y2="6701.53" gradientUnits="userSpaceOnUse">
<stop stop-color="#7633FF"/>
<stop offset="0.1585" stop-color="#7137FF"/>
<stop offset="0.3535" stop-color="#6243FF"/>
<stop offset="0.5676" stop-color="#4957FF"/>
<stop offset="0.7937" stop-color="#2672FF"/>
<stop offset="1" stop-color="#0090FF"/>
</linearGradient>
<linearGradient id="paint10_linear_187_6064" x1="625.653" y1="-1380.34" x2="625.653" y2="5591.96" gradientUnits="userSpaceOnUse">
<stop stop-color="#7633FF"/>
<stop offset="0.1585" stop-color="#7137FF"/>
<stop offset="0.3535" stop-color="#6243FF"/>
<stop offset="0.5676" stop-color="#4957FF"/>
<stop offset="0.7937" stop-color="#2672FF"/>
<stop offset="1" stop-color="#0090FF"/>
</linearGradient>
<linearGradient id="paint11_linear_187_6064" x1="640.184" y1="-493.658" x2="640.184" y2="6478.69" gradientUnits="userSpaceOnUse">
<stop stop-color="#7633FF"/>
<stop offset="0.1585" stop-color="#7137FF"/>
<stop offset="0.3535" stop-color="#6243FF"/>
<stop offset="0.5676" stop-color="#4957FF"/>
<stop offset="0.7937" stop-color="#2672FF"/>
<stop offset="1" stop-color="#0090FF"/>
</linearGradient>
<linearGradient id="paint12_linear_187_6064" x1="654.745" y1="-2384.01" x2="654.745" y2="4588.3" gradientUnits="userSpaceOnUse">
<stop stop-color="#7633FF"/>
<stop offset="0.1585" stop-color="#7137FF"/>
<stop offset="0.3535" stop-color="#6243FF"/>
<stop offset="0.5676" stop-color="#4957FF"/>
<stop offset="0.7937" stop-color="#2672FF"/>
<stop offset="1" stop-color="#0090FF"/>
</linearGradient>
<linearGradient id="paint13_linear_187_6064" x1="669.252" y1="-1615.15" x2="669.252" y2="5357.12" gradientUnits="userSpaceOnUse">
<stop stop-color="#7633FF"/>
<stop offset="0.1585" stop-color="#7137FF"/>
<stop offset="0.3535" stop-color="#6243FF"/>
<stop offset="0.5676" stop-color="#4957FF"/>
<stop offset="0.7937" stop-color="#2672FF"/>
<stop offset="1" stop-color="#0090FF"/>
</linearGradient>
<linearGradient id="paint14_linear_187_6064" x1="18196.9" y1="24734.1" x2="18196.9" y2="530.143" gradientUnits="userSpaceOnUse">
<stop stop-color="#A1BAFF"/>
<stop offset="0.4332" stop-color="white"/>
</linearGradient>
<linearGradient id="paint15_linear_187_6064" x1="16254.1" y1="13784.5" x2="16254.1" y2="-431.024" gradientUnits="userSpaceOnUse">
<stop stop-color="#88CFDA"/>
<stop offset="0.0506" stop-color="#93D1D5"/>
<stop offset="0.2502" stop-color="#BAD7C2"/>
<stop offset="0.4481" stop-color="#D8DBB3"/>
<stop offset="0.6414" stop-color="#EEDEA8"/>
<stop offset="0.8279" stop-color="#FBE0A2"/>
<stop offset="1" stop-color="#FFE1A0"/>
</linearGradient>
<linearGradient id="paint16_linear_187_6064" x1="8598.03" y1="14810.5" x2="8598.03" y2="-4113.9" gradientUnits="userSpaceOnUse">
<stop stop-color="#88CFDA"/>
<stop offset="0.1838" stop-color="#98D1D2"/>
<stop offset="0.5428" stop-color="#C2D8BE"/>
<stop offset="1" stop-color="#FFE1A0"/>
</linearGradient>
<linearGradient id="paint17_linear_187_6064" x1="1282.4" y1="8067.91" x2="1282.4" y2="160.982" gradientUnits="userSpaceOnUse">
<stop stop-color="#7633FF"/>
<stop offset="0.1585" stop-color="#7137FF"/>
<stop offset="0.3535" stop-color="#6243FF"/>
<stop offset="0.5676" stop-color="#4957FF"/>
<stop offset="0.7937" stop-color="#2672FF"/>
<stop offset="1" stop-color="#0090FF"/>
</linearGradient>
<linearGradient id="paint18_linear_187_6064" x1="325.321" y1="541.759" x2="1071.25" y2="541.759" gradientUnits="userSpaceOnUse">
<stop stop-color="#7633FF"/>
<stop offset="0.1585" stop-color="#7137FF"/>
<stop offset="0.3535" stop-color="#6243FF"/>
<stop offset="0.5676" stop-color="#4957FF"/>
<stop offset="0.7937" stop-color="#2672FF"/>
<stop offset="1" stop-color="#0090FF"/>
</linearGradient>
<linearGradient id="paint19_linear_187_6064" x1="325.321" y1="566.719" x2="1071.25" y2="566.719" gradientUnits="userSpaceOnUse">
<stop stop-color="#7633FF"/>
<stop offset="0.1585" stop-color="#7137FF"/>
<stop offset="0.3535" stop-color="#6243FF"/>
<stop offset="0.5676" stop-color="#4957FF"/>
<stop offset="0.7937" stop-color="#2672FF"/>
<stop offset="1" stop-color="#0090FF"/>
</linearGradient>
<linearGradient id="paint20_linear_187_6064" x1="325.321" y1="594.874" x2="1071.25" y2="594.874" gradientUnits="userSpaceOnUse">
<stop stop-color="#7633FF"/>
<stop offset="0.1585" stop-color="#7137FF"/>
<stop offset="0.3535" stop-color="#6243FF"/>
<stop offset="0.5676" stop-color="#4957FF"/>
<stop offset="0.7937" stop-color="#2672FF"/>
<stop offset="1" stop-color="#0090FF"/>
</linearGradient>
<linearGradient id="paint21_linear_187_6064" x1="517.637" y1="3379.17" x2="14645.1" y2="3379.17" gradientUnits="userSpaceOnUse">
<stop stop-color="#270036"/>
<stop offset="0.5936" stop-color="#4F008B"/>
<stop offset="1" stop-color="#4C24B1"/>
</linearGradient>
<linearGradient id="paint22_linear_187_6064" x1="1207.63" y1="8421.64" x2="1207.63" y2="128.617" gradientUnits="userSpaceOnUse">
<stop stop-color="#7633FF"/>
<stop offset="0.1585" stop-color="#7137FF"/>
<stop offset="0.3535" stop-color="#6243FF"/>
<stop offset="0.5676" stop-color="#4957FF"/>
<stop offset="0.7937" stop-color="#2672FF"/>
<stop offset="1" stop-color="#0090FF"/>
</linearGradient>
<linearGradient id="paint23_linear_187_6064" x1="1225.75" y1="4425.78" x2="1225.75" y2="336.328" gradientUnits="userSpaceOnUse">
<stop stop-color="#7633FF"/>
<stop offset="0.1585" stop-color="#7137FF"/>
<stop offset="0.3535" stop-color="#6243FF"/>
<stop offset="0.5676" stop-color="#4957FF"/>
<stop offset="0.7937" stop-color="#2672FF"/>
<stop offset="1" stop-color="#0090FF"/>
</linearGradient>
<linearGradient id="paint24_linear_187_6064" x1="1244.73" y1="3132.73" x2="1244.73" y2="285.32" gradientUnits="userSpaceOnUse">
<stop stop-color="#311341"/>
<stop offset="0.2299" stop-color="#3113C2"/>
<stop offset="0.3479" stop-color="#2F18C5"/>
<stop offset="0.4931" stop-color="#2927CC"/>
<stop offset="0.6524" stop-color="#1F40D8"/>
<stop offset="0.8219" stop-color="#1263E9"/>
<stop offset="0.9978" stop-color="#008FFF"/>
<stop offset="1" stop-color="#0090FF"/>
</linearGradient>
<linearGradient id="paint25_linear_187_6064" x1="735.864" y1="4734.36" x2="735.864" y2="-146.215" gradientUnits="userSpaceOnUse">
<stop stop-color="#7633FF"/>
<stop offset="0.1585" stop-color="#7137FF"/>
<stop offset="0.3535" stop-color="#6243FF"/>
<stop offset="0.5676" stop-color="#4957FF"/>
<stop offset="0.7937" stop-color="#2672FF"/>
<stop offset="1" stop-color="#0090FF"/>
</linearGradient>
<linearGradient id="paint26_linear_187_6064" x1="744.416" y1="5137.61" x2="744.416" y2="151.952" gradientUnits="userSpaceOnUse">
<stop stop-color="#311341"/>
<stop offset="0.2299" stop-color="#3113C2"/>
<stop offset="0.3479" stop-color="#2F18C5"/>
<stop offset="0.4931" stop-color="#2927CC"/>
<stop offset="0.6524" stop-color="#1F40D8"/>
<stop offset="0.8219" stop-color="#1263E9"/>
<stop offset="0.9978" stop-color="#008FFF"/>
<stop offset="1" stop-color="#0090FF"/>
</linearGradient>
<linearGradient id="paint27_linear_187_6064" x1="150.737" y1="1813.16" x2="2886.72" y2="1813.16" gradientUnits="userSpaceOnUse">
<stop stop-color="#7633FF"/>
<stop offset="0.1585" stop-color="#7137FF"/>
<stop offset="0.3535" stop-color="#6243FF"/>
<stop offset="0.5676" stop-color="#4957FF"/>
<stop offset="0.7937" stop-color="#2672FF"/>
<stop offset="1" stop-color="#0090FF"/>
</linearGradient>
<linearGradient id="paint28_linear_187_6064" x1="906.351" y1="707.993" x2="-276.229" y2="1457.54" gradientUnits="userSpaceOnUse">
<stop stop-color="#A1BAFF"/>
<stop offset="0.4332" stop-color="white"/>
</linearGradient>
<linearGradient id="paint29_linear_187_6064" x1="1151.28" y1="12353" x2="764.467" y2="3125.68" gradientUnits="userSpaceOnUse">
<stop stop-color="#A1BAFF"/>
<stop offset="0.4332" stop-color="white"/>
<stop offset="0.5794" stop-color="#FBFCFF"/>
<stop offset="0.7123" stop-color="#F0F4FF"/>
<stop offset="0.84" stop-color="#DEE7FF"/>
<stop offset="0.9637" stop-color="#C4D4FF"/>
<stop offset="1" stop-color="#BBCDFF"/>
</linearGradient>
<linearGradient id="paint30_linear_187_6064" x1="1927.11" y1="12447.1" x2="1540.44" y2="3219.01" gradientUnits="userSpaceOnUse">
<stop stop-color="#A1BAFF"/>
<stop offset="0.4332" stop-color="white"/>
<stop offset="0.5794" stop-color="#FBFCFF"/>
<stop offset="0.7123" stop-color="#F0F4FF"/>
<stop offset="0.84" stop-color="#DEE7FF"/>
<stop offset="0.9637" stop-color="#C4D4FF"/>
<stop offset="1" stop-color="#BBCDFF"/>
</linearGradient>
<linearGradient id="paint31_linear_187_6064" x1="1749.07" y1="787.457" x2="2769.04" y2="5878.25" gradientUnits="userSpaceOnUse">
<stop stop-color="#311341"/>
<stop offset="0.6346" stop-color="#3113C2"/>
<stop offset="0.6906" stop-color="#2F18C5"/>
<stop offset="0.7595" stop-color="#2927CC"/>
<stop offset="0.8351" stop-color="#1F40D8"/>
<stop offset="0.9155" stop-color="#1263E9"/>
<stop offset="0.999" stop-color="#008FFF"/>
<stop offset="1" stop-color="#0090FF"/>
</linearGradient>
<linearGradient id="paint32_linear_187_6064" x1="119.803" y1="942.668" x2="1518.28" y2="942.668" gradientUnits="userSpaceOnUse">
<stop stop-color="#A1BAFF"/>
<stop offset="0.4332" stop-color="white"/>
</linearGradient>
<linearGradient id="paint33_linear_187_6064" x1="127.043" y1="484.393" x2="1910.67" y2="484.393" gradientUnits="userSpaceOnUse">
<stop stop-color="#88CFDA"/>
<stop offset="0.0506" stop-color="#93D1D5"/>
<stop offset="0.2502" stop-color="#BAD7C2"/>
<stop offset="0.4481" stop-color="#D8DBB3"/>
<stop offset="0.6414" stop-color="#EEDEA8"/>
<stop offset="0.8279" stop-color="#FBE0A2"/>
<stop offset="1" stop-color="#FFE1A0"/>
</linearGradient>
<linearGradient id="paint34_linear_187_6064" x1="114.783" y1="2479.59" x2="4439.74" y2="2479.59" gradientUnits="userSpaceOnUse">
<stop stop-color="#88CFDA"/>
<stop offset="0.0506" stop-color="#93D1D5"/>
<stop offset="0.2502" stop-color="#BAD7C2"/>
<stop offset="0.4481" stop-color="#D8DBB3"/>
<stop offset="0.6414" stop-color="#EEDEA8"/>
<stop offset="0.8279" stop-color="#FBE0A2"/>
<stop offset="1" stop-color="#FFE1A0"/>
</linearGradient>
<linearGradient id="paint35_linear_187_6064" x1="622.32" y1="445.66" x2="2213.6" y2="3500.54" gradientUnits="userSpaceOnUse">
<stop stop-color="#311341"/>
<stop offset="0.6346" stop-color="#3113C2"/>
<stop offset="0.6906" stop-color="#2F18C5"/>
<stop offset="0.7595" stop-color="#2927CC"/>
<stop offset="0.8351" stop-color="#1F40D8"/>
<stop offset="0.9155" stop-color="#1263E9"/>
<stop offset="0.999" stop-color="#008FFF"/>
<stop offset="1" stop-color="#0090FF"/>
</linearGradient>
<linearGradient id="paint36_linear_187_6064" x1="3244.75" y1="1773.71" x2="591.019" y2="1773.71" gradientUnits="userSpaceOnUse">
<stop stop-color="#7633FF"/>
<stop offset="0.1585" stop-color="#7137FF"/>
<stop offset="0.3535" stop-color="#6243FF"/>
<stop offset="0.5676" stop-color="#4957FF"/>
<stop offset="0.7937" stop-color="#2672FF"/>
<stop offset="1" stop-color="#0090FF"/>
</linearGradient>
<linearGradient id="paint37_linear_187_6064" x1="3114.98" y1="1284.76" x2="1403.23" y2="9829" gradientUnits="userSpaceOnUse">
<stop stop-color="#3822D1"/>
<stop offset="0.1652" stop-color="#3527D3"/>
<stop offset="0.3684" stop-color="#2E36DA"/>
<stop offset="0.5916" stop-color="#214FE4"/>
<stop offset="0.8272" stop-color="#0F72F2"/>
<stop offset="1" stop-color="#0090FF"/>
</linearGradient>
<linearGradient id="paint38_linear_187_6064" x1="2352.42" y1="485.05" x2="622.469" y2="485.05" gradientUnits="userSpaceOnUse">
<stop stop-color="#88CFDA"/>
<stop offset="0.0506" stop-color="#93D1D5"/>
<stop offset="0.2502" stop-color="#BAD7C2"/>
<stop offset="0.4481" stop-color="#D8DBB3"/>
<stop offset="0.6414" stop-color="#EEDEA8"/>
<stop offset="0.8279" stop-color="#FBE0A2"/>
<stop offset="1" stop-color="#FFE1A0"/>
</linearGradient>
<linearGradient id="paint39_linear_187_6064" x1="527.003" y1="467.634" x2="1911.42" y2="467.634" gradientUnits="userSpaceOnUse">
<stop stop-color="#7633FF"/>
<stop offset="0.1585" stop-color="#7137FF"/>
<stop offset="0.3535" stop-color="#6243FF"/>
<stop offset="0.5676" stop-color="#4957FF"/>
<stop offset="0.7937" stop-color="#2672FF"/>
<stop offset="1" stop-color="#0090FF"/>
</linearGradient>
<linearGradient id="paint40_linear_187_6064" x1="2141.29" y1="313.562" x2="2963.87" y2="6472.22" gradientUnits="userSpaceOnUse">
<stop stop-color="#7633FF"/>
<stop offset="0.1585" stop-color="#7137FF"/>
<stop offset="0.3535" stop-color="#6243FF"/>
<stop offset="0.5676" stop-color="#4957FF"/>
<stop offset="0.7937" stop-color="#2672FF"/>
<stop offset="1" stop-color="#0090FF"/>
</linearGradient>
<linearGradient id="paint41_linear_187_6064" x1="-758.817" y1="2284.05" x2="5100.64" y2="1460.19" gradientUnits="userSpaceOnUse">
<stop stop-color="#5E60FF"/>
<stop offset="0.1814" stop-color="#5963FF"/>
<stop offset="0.4044" stop-color="#4A6AFF"/>
<stop offset="0.6491" stop-color="#3177FF"/>
<stop offset="0.9079" stop-color="#0E89FF"/>
<stop offset="1" stop-color="#0090FF"/>
</linearGradient>
<linearGradient id="paint42_linear_187_6064" x1="1363.1" y1="2128.74" x2="2953.61" y2="3135.59" gradientUnits="userSpaceOnUse">
<stop stop-color="#591DDB"/>
<stop offset="0.1609" stop-color="#5522DD"/>
<stop offset="0.3589" stop-color="#4931E1"/>
<stop offset="0.5762" stop-color="#364AE9"/>
<stop offset="0.8058" stop-color="#1B6DF4"/>
<stop offset="1" stop-color="#0090FF"/>
</linearGradient>
<linearGradient id="paint43_linear_187_6064" x1="2335.6" y1="377.785" x2="2335.6" y2="10523.4" gradientUnits="userSpaceOnUse">
<stop stop-color="#311341"/>
<stop offset="0.2299" stop-color="#3113C2"/>
<stop offset="0.3479" stop-color="#2F18C5"/>
<stop offset="0.4931" stop-color="#2927CC"/>
<stop offset="0.6524" stop-color="#1F40D8"/>
<stop offset="0.8219" stop-color="#1263E9"/>
<stop offset="0.9978" stop-color="#008FFF"/>
<stop offset="1" stop-color="#0090FF"/>
</linearGradient>
<linearGradient id="paint44_linear_187_6064" x1="1443.82" y1="110.955" x2="1443.82" y2="1988.31" gradientUnits="userSpaceOnUse">
<stop stop-color="#270036"/>
<stop offset="0.5936" stop-color="#4F008B"/>
<stop offset="1" stop-color="#4C24B1"/>
</linearGradient>
<linearGradient id="paint45_linear_187_6064" x1="1421.71" y1="110.955" x2="1421.71" y2="1988.31" gradientUnits="userSpaceOnUse">
<stop stop-color="#270036"/>
<stop offset="0.5936" stop-color="#4F008B"/>
<stop offset="1" stop-color="#4C24B1"/>
</linearGradient>
<linearGradient id="paint46_linear_187_6064" x1="217.464" y1="1173.81" x2="7927.71" y2="1173.81" gradientUnits="userSpaceOnUse">
<stop stop-color="#311341"/>
<stop offset="0.2299" stop-color="#3113C2"/>
<stop offset="0.3479" stop-color="#2F18C5"/>
<stop offset="0.4931" stop-color="#2927CC"/>
<stop offset="0.6524" stop-color="#1F40D8"/>
<stop offset="0.8219" stop-color="#1263E9"/>
<stop offset="0.9978" stop-color="#008FFF"/>
<stop offset="1" stop-color="#0090FF"/>
</linearGradient>
<linearGradient id="paint47_linear_187_6064" x1="181.852" y1="2286.08" x2="1367.96" y2="2286.08" gradientUnits="userSpaceOnUse">
<stop stop-color="#7633FF"/>
<stop offset="0.1106" stop-color="#6640FF"/>
<stop offset="0.5243" stop-color="#2F6BFF"/>
<stop offset="0.8331" stop-color="#0D86FF"/>
<stop offset="1" stop-color="#0090FF"/>
</linearGradient>
<linearGradient id="paint48_linear_187_6064" x1="199.306" y1="1067.34" x2="2824.86" y2="1067.34" gradientUnits="userSpaceOnUse">
<stop stop-color="#27004F"/>
<stop offset="1" stop-color="#004C81"/>
</linearGradient>
<linearGradient id="paint49_linear_187_6064" x1="147.684" y1="1283.8" x2="2706.15" y2="1283.8" gradientUnits="userSpaceOnUse">
<stop stop-color="#27004F"/>
<stop offset="1" stop-color="#004C81"/>
</linearGradient>
<linearGradient id="paint50_linear_187_6064" x1="199.302" y1="807.25" x2="2784.86" y2="807.25" gradientUnits="userSpaceOnUse">
<stop stop-color="#27004F"/>
<stop offset="1" stop-color="#004C81"/>
</linearGradient>
<linearGradient id="paint51_linear_187_6064" x1="184.347" y1="2586.05" x2="4701.24" y2="2586.05" gradientUnits="userSpaceOnUse">
<stop stop-color="#A1BAFF"/>
<stop offset="0.4332" stop-color="white"/>
</linearGradient>
<linearGradient id="paint52_linear_187_6064" x1="5805.19" y1="954.542" x2="-732.331" y2="1643.88" gradientUnits="userSpaceOnUse">
<stop stop-color="#A1BAFF"/>
<stop offset="0.4332" stop-color="white"/>
</linearGradient>
<linearGradient id="paint53_linear_187_6064" x1="268.098" y1="9135.83" x2="17971.5" y2="9135.83" gradientUnits="userSpaceOnUse">
<stop stop-color="#270036"/>
<stop offset="0.5936" stop-color="#4F008B"/>
<stop offset="1" stop-color="#4C24B1"/>
</linearGradient>
<linearGradient id="paint54_linear_187_6064" x1="-688.77" y1="9003.27" x2="5789.05" y2="2536.6" gradientUnits="userSpaceOnUse">
<stop stop-color="#7633FF"/>
<stop offset="0.1585" stop-color="#7137FF"/>
<stop offset="0.3535" stop-color="#6243FF"/>
<stop offset="0.5676" stop-color="#4957FF"/>
<stop offset="0.7937" stop-color="#2672FF"/>
<stop offset="1" stop-color="#0090FF"/>
</linearGradient>
<linearGradient id="paint55_linear_187_6064" x1="231.414" y1="2625.57" x2="11775.6" y2="2625.57" gradientUnits="userSpaceOnUse">
<stop stop-color="#A1BAFF"/>
<stop offset="0.0888" stop-color="#ACC2FF"/>
<stop offset="0.4988" stop-color="#D9E3FF"/>
<stop offset="0.816" stop-color="#F5F7FF"/>
<stop offset="1" stop-color="white"/>
</linearGradient>
<clipPath id="clip0_187_6064">
<rect width="727" height="479" fill="white" transform="translate(55)"/>
</clipPath>
</defs>
</svg>