<svg width="25" height="25" viewBox="0 0 25 25" fill="none" xmlns="http://www.w3.org/2000/svg">
  <path d="M16.8743 6.06625H8.12435M16.8743 11.2133H8.12435M16.8743 16.3604H11.041M2.29102 0.919189H22.7077V24.081L21.2027 22.9435C20.6741 22.5437 20.0008 22.324 19.3047 22.324C18.6085 22.324 17.9352 22.5437 17.4066 22.9435L15.9016 24.081L14.3981 22.9435C13.8694 22.5434 13.1959 22.3234 12.4993 22.3234C11.8028 22.3234 11.1293 22.5434 10.6006 22.9435L9.09706 24.081L7.59206 22.9435C7.06345 22.5437 6.39022 22.324 5.69404 22.324C4.99785 22.324 4.32462 22.5437 3.79602 22.9435L2.29102 24.081V0.919189Z" stroke="#cbd3f2" stroke-linecap="round" stroke-linejoin="round"/>
</svg>


