<svg width="28" height="27" viewBox="0 0 28 27" fill="none" xmlns="http://www.w3.org/2000/svg">
  <path d="M27.3332 13.5H19.4166L16.7777 18.1875H11.4999L8.861 13.5H0.944336" stroke="#cbd3f2" stroke-linecap="round" stroke-linejoin="round"/>
  <path d="M5.49642 2.73438L0.944336 13.5V22.875C0.944336 23.7038 1.22236 24.4987 1.71725 25.0847C2.21214 25.6708 2.88335 26 3.58322 26H24.6943C25.3942 26 26.0654 25.6708 26.5603 25.0847C27.0552 24.4987 27.3332 23.7038 27.3332 22.875V13.5L22.7811 2.73438C22.5627 2.21373 22.2259 1.77558 21.8087 1.46919C21.3914 1.16279 20.9103 1.00031 20.4193 1H7.85822C7.36728 1.00031 6.88614 1.16279 6.46891 1.46919C6.05167 1.77558 5.71489 2.21373 5.49642 2.73438Z" stroke="#cbd3f2" stroke-linecap="round" stroke-linejoin="round"/>
</svg>


