<svg width="16" height="16" viewBox="0 0 16 16" fill="none" xmlns="http://www.w3.org/2000/svg">
  <path d="M7.99953 9.909C9.11246 9.909 10.0147 9.05427 10.0147 7.99991C10.0147 6.94555 9.11246 6.09082 7.99953 6.09082C6.88659 6.09082 5.98438 6.94555 5.98438 7.99991C5.98438 9.05427 6.88659 9.909 7.99953 9.909Z" stroke="#cbd3f2" stroke-linecap="round" stroke-linejoin="round"/>
  <path d="M12.9709 9.90909C12.8815 10.101 12.8548 10.3139 12.8943 10.5204C12.9339 10.7268 13.0377 10.9173 13.1926 11.0673L13.2329 11.1055C13.3578 11.2237 13.4569 11.364 13.5245 11.5185C13.5921 11.673 13.6269 11.8387 13.6269 12.0059C13.6269 12.1732 13.5921 12.3388 13.5245 12.4933C13.4569 12.6478 13.3578 12.7882 13.2329 12.9064C13.1081 13.0247 12.96 13.1186 12.7969 13.1826C12.6338 13.2467 12.459 13.2796 12.2824 13.2796C12.1059 13.2796 11.931 13.2467 11.768 13.1826C11.6049 13.1186 11.4567 13.0247 11.3319 12.9064L11.2916 12.8682C11.1333 12.7215 10.9323 12.6231 10.7143 12.5856C10.4964 12.5482 10.2717 12.5735 10.0691 12.6582C9.87043 12.7388 9.70099 12.8728 9.58165 13.0435C9.4623 13.2143 9.39825 13.4143 9.39739 13.6191V13.7273C9.39739 14.0648 9.25585 14.3885 9.00391 14.6272C8.75196 14.8659 8.41026 15 8.05395 15C7.69765 15 7.35595 14.8659 7.104 14.6272C6.85206 14.3885 6.71052 14.0648 6.71052 13.7273V13.67C6.70532 13.4594 6.63335 13.2551 6.50397 13.0837C6.3746 12.9123 6.19379 12.7818 5.98507 12.7091C5.78246 12.6244 5.55772 12.5991 5.33982 12.6365C5.12192 12.674 4.92085 12.7724 4.76254 12.9191L4.72224 12.9573C4.59747 13.0756 4.4493 13.1695 4.28621 13.2335C4.12312 13.2976 3.94831 13.3305 3.77176 13.3305C3.59521 13.3305 3.42039 13.2976 3.2573 13.2335C3.09421 13.1695 2.94605 13.0756 2.82128 12.9573C2.69637 12.8391 2.59728 12.6987 2.52967 12.5442C2.46206 12.3897 2.42727 12.2241 2.42727 12.0568C2.42727 11.8896 2.46206 11.7239 2.52967 11.5694C2.59728 11.4149 2.69637 11.2746 2.82128 11.1564L2.86158 11.1182C3.01644 10.9682 3.12032 10.7777 3.15983 10.5713C3.19934 10.3649 3.17266 10.1519 3.08325 9.96C2.9981 9.77178 2.85671 9.61126 2.6765 9.4982C2.49628 9.38513 2.2851 9.32445 2.06895 9.32364H1.95476C1.59846 9.32364 1.25675 9.18955 1.00481 8.95086C0.752868 8.71218 0.611328 8.38846 0.611328 8.05091C0.611328 7.71336 0.752868 7.38964 1.00481 7.15096C1.25675 6.91227 1.59846 6.77818 1.95476 6.77818H2.01522C2.23755 6.77325 2.45318 6.70508 2.63407 6.58251C2.81496 6.45994 2.95274 6.28865 3.02951 6.09091C3.11893 5.89897 3.1456 5.68606 3.10609 5.47963C3.06658 5.27319 2.9627 5.0827 2.80784 4.93273L2.76754 4.89455C2.64263 4.77634 2.54354 4.63598 2.47593 4.48147C2.40833 4.32696 2.37353 4.16135 2.37353 3.99409C2.37353 3.82683 2.40833 3.66122 2.47593 3.50671C2.54354 3.35221 2.64263 3.21184 2.47593 3.09364C2.89231 2.9753 3.04047 2.88143 3.20356 2.81738C3.36666 2.75333 3.54147 2.72036 3.71802 2.72036C3.89457 2.72036 4.06938 2.75333 4.23248 2.81738C4.39557 2.88143 4.54373 2.9753 4.6685 3.09364L4.7088 3.13182C4.86711 3.27852 5.06818 3.37694 5.28608 3.41437C5.50399 3.4518 5.72873 3.42653 5.93133 3.34182H5.98507C6.18374 3.26115 6.35318 3.12721 6.47253 2.95648C6.59187 2.78575 6.65592 2.58568 6.65678 2.38091V2.27273C6.65678 1.93518 6.79832 1.61146 7.05027 1.37277C7.30221 1.13409 7.64392 1 8.00022 1C8.35652 1 8.69823 1.13409 8.95017 1.37277C9.20211 1.61146 9.34365 1.93518 9.34365 2.27273V2.33C9.34451 2.53477 9.40856 2.73484 9.52791 2.90557C9.64726 3.0763 9.8167 3.21024 10.0154 3.29091C10.218 3.37562 10.4427 3.40089 10.6606 3.36346C10.8785 3.32603 11.0796 3.22761 11.2379 3.08091L11.2782 3.04273C11.403 2.92439 11.5511 2.83052 11.7142 2.76647C11.8773 2.70242 12.0521 2.66945 12.2287 2.66945C12.4052 2.66945 12.58 2.70242 12.7431 2.76647C12.9062 2.83052 13.0544 2.92439 13.1792 3.04273C13.3041 3.16093 13.4032 3.3013 13.4708 3.4558C13.5384 3.61031 13.5732 3.77593 13.5732 3.94318C13.5732 4.11044 13.5384 4.27605 13.4708 4.43056C13.4032 4.58507 13.3041 4.72543 13.1792 4.84364L13.1389 4.88182C12.984 5.0318 12.8801 5.22228 12.8406 5.42872C12.8011 5.63515 12.8278 5.84806 12.9172 6.04V6.09091C13.0023 6.27913 13.1437 6.43965 13.3239 6.55271C13.5042 6.66578 13.7153 6.72646 13.9315 6.72727H14.0457C14.402 6.72727 14.7437 6.86136 14.9956 7.10005C15.2476 7.33873 15.3891 7.66245 15.3891 8C15.3891 8.33755 15.2476 8.66127 14.9956 8.89995C14.7437 9.13864 14.402 9.27273 14.0457 9.27273H13.9852C13.7691 9.27354 13.5579 9.33422 13.3777 9.44729C13.1975 9.56035 13.0561 9.72087 12.9709 9.90909Z" stroke="#cbd3f2" stroke-linecap="round" stroke-linejoin="round"/>
</svg>


