<svg width="27" height="27" viewBox="0 0 27 27" fill="none" xmlns="http://www.w3.org/2000/svg">
  <path d="M6.54058 20.922H8.18989V13.5001H6.54058V20.922ZM18.9763 20.922H20.6257V5.25358H18.9763V20.922ZM12.7585 20.922H14.4078V16.7987H12.7585V20.922ZM12.7585 13.5001H14.4078V10.2015H12.7585V13.5001ZM3.05395 26.6945C2.29417 26.6945 1.66029 26.4406 1.1523 25.9326C0.644314 25.4246 0.389771 24.7902 0.388672 24.0293V2.97094C0.388672 2.21116 0.643214 1.57728 1.1523 1.06929C1.66139 0.561306 2.29527 0.306764 3.05395 0.305664H24.1139C24.8726 0.305664 25.5065 0.560207 26.0156 1.06929C26.5247 1.57838 26.7787 2.21226 26.7776 2.97094V24.0309C26.7776 24.7896 26.5236 25.4235 26.0156 25.9326C25.5076 26.4417 24.8732 26.6957 24.1123 26.6945H3.05395ZM3.05395 25.0452H24.1139C24.3668 25.0452 24.5994 24.9397 24.8116 24.7286C25.0238 24.5175 25.1294 24.2844 25.1283 24.0293V2.97094C25.1283 2.71695 25.0227 2.48385 24.8116 2.27164C24.6005 2.05943 24.3674 1.95387 24.1123 1.95497H3.05395C2.79996 1.95497 2.56685 2.06052 2.35464 2.27164C2.14243 2.48275 2.03688 2.71585 2.03798 2.97094V24.0309C2.03798 24.2838 2.14353 24.5164 2.35464 24.7286C2.56575 24.9408 2.79996 25.0463 3.05395 25.0452Z" fill="#cbd3f2"/>
</svg>


